<svg width="147" height="35" viewBox="0 0 147 35" fill="none" xmlns="http://www.w3.org/2000/svg">
<path fill-rule="evenodd" clip-rule="evenodd" d="M38.1308 18.799C38.1308 19.8693 37.7614 20.2111 36.9962 20.2801L36.6443 20.2942H34.5211V17.5098H36.5444C37.2174 17.5098 38.1308 17.5171 38.1308 18.799ZM37.7909 14.7961C37.7909 15.7114 37.547 16.1157 36.8642 16.2026L36.5444 16.221H34.5211V13.617H36.406C37.4757 13.617 37.7909 13.8611 37.7909 14.7961ZM32.6502 12.3167V21.5937H36.6443C38.5331 21.5937 40.0196 20.9238 40.0196 18.799C40.0196 17.6811 39.4495 17.0909 38.7965 16.7658C39.0647 16.5838 39.2842 16.3388 39.4367 16.0159C39.5891 15.6929 39.6741 15.2916 39.6741 14.7961C39.6741 13.2645 38.601 12.4254 36.7801 12.3265L36.406 12.3167H32.6502ZM59.9336 20.3846C59.2319 20.5276 58.5303 20.5974 58.155 20.6107C57.5195 20.6424 57.1425 20.5259 56.9238 20.1687C56.7052 19.8119 56.6458 19.2149 56.6458 18.2863C56.6458 16.4279 56.8905 15.8925 58.155 15.9478C58.3484 15.9568 58.6559 16.0067 58.991 16.0611C59.3064 16.1122 59.6462 16.1673 59.9387 16.1962L60.1125 15.1113L59.9859 15.0888C59.4135 14.9869 58.7088 14.8615 58.2147 14.8428C55.4019 14.7194 54.7186 15.9058 54.7186 18.2863C54.7186 20.6694 55.4031 21.8374 58.219 21.7256C58.7887 21.705 59.5578 21.5996 60.1595 21.484L59.9336 20.3846ZM42.4528 19.474C42.4528 19.9605 42.613 20.3893 43.2928 20.5233C43.7177 20.609 44.1537 20.5803 44.6679 20.5233V18.3506L44.0341 18.3677C43.8527 18.378 43.649 18.3938 43.444 18.4195C43.1275 18.4593 42.8799 18.56 42.7112 18.7317C42.5425 18.9039 42.4528 19.1472 42.4528 19.474ZM44.6563 16.7479C44.6025 16.2279 44.3536 15.9872 43.8275 15.9872C43.1873 15.9872 42.4046 16.138 41.3524 16.3444L41.1491 15.2205L41.262 15.1981C42.3079 14.9901 43.0489 14.8428 43.8275 14.8428C44.7554 14.8428 45.4306 15.0608 45.8738 15.4471C46.3175 15.833 46.5289 16.3877 46.5289 17.0605V21.5273L45.6778 21.6228C44.8195 21.7101 43.9359 21.7611 43.0016 21.6669C41.4698 21.5067 40.5265 20.7199 40.5265 19.4761C40.5265 18.3506 41.1995 17.5475 42.9644 17.3398C43.7344 17.2485 44.6679 17.2434 44.6679 17.2434V16.9881L44.6563 16.7479ZM63.6714 20.5979C62.4176 20.5979 62.161 20.0822 62.161 18.1497C62.161 17.2468 62.2575 16.7007 62.4945 16.3804C62.7319 16.06 63.1094 15.9649 63.6714 15.9649C64.5063 15.9649 65.055 16.4163 65.1208 17.87L65.1272 18.1737C65.1272 19.9832 64.906 20.5979 63.6714 20.5979ZM66.3562 20.8064C66.8631 20.2094 67.036 19.3245 67.036 18.1737C67.036 16.009 65.9326 14.9734 64.057 14.8522L63.6714 14.8402C61.3629 14.8402 60.2521 15.8099 60.2521 18.1497C60.2521 20.6304 61.0276 21.7131 63.6714 21.7131C65.008 21.7131 65.8489 21.4035 66.3562 20.8064ZM72.1707 18.157C72.1707 19.7944 72.3637 20.5045 73.7508 20.5837C74.308 20.6146 74.6117 20.5627 74.6117 20.5627V16.0472L74.3422 15.9876C74.048 15.9337 73.685 15.9037 73.3254 15.9495C72.8617 16.0137 72.5734 16.1765 72.4 16.5179C72.2275 16.8588 72.1707 17.3787 72.1707 18.157ZM70.2426 18.1343C70.2426 16.0938 70.9477 14.8303 73.3254 14.8303C73.811 14.8303 74.2542 14.8629 74.6117 14.91V12.3222H76.4731V21.5594L75.7591 21.6343C75.0972 21.6964 74.5741 21.7204 74.0215 21.7204C70.8853 21.7204 70.2426 20.4295 70.2426 18.1343ZM79.5281 16.3367C79.7348 16.0686 80.0419 15.9649 80.4676 15.9649C81.2623 15.9649 81.6428 16.2733 81.7581 17.2408L81.7919 17.6965H79.1899C79.2147 17.0382 79.3214 16.6052 79.5281 16.3367ZM80.5842 20.6004C79.6387 20.6004 79.3185 20.1781 79.2198 19.2474L79.1899 18.817H83.6751V18.0567C83.6751 15.8583 82.5503 14.8398 80.3988 14.8398C78.4072 14.8398 77.2349 15.7559 77.2349 18.2777C77.2349 19.2774 77.3746 20.1396 77.8605 20.7512C78.3465 21.3632 79.1792 21.7251 80.565 21.7251C81.2504 21.7251 81.9426 21.6609 82.6741 21.5401L83.4197 21.4005L83.2169 20.2818C82.549 20.4248 81.2115 20.6004 80.5842 20.6004ZM49.3601 21.5885H47.5222V15.5015L47.9223 15.3499C48.8486 15.0162 49.7287 14.8299 50.716 14.8299C51.9177 14.8299 52.7239 15.1216 53.2291 15.6814C53.7339 16.2412 53.9384 17.0687 53.9384 18.1403V21.5885H52.0671V18.1403L52.0496 17.574C51.9663 16.3675 51.5799 15.9495 50.716 15.9495C50.2292 15.9495 49.6992 16.0583 49.3601 16.1478V21.5885Z" fill="#003585"/>
<path fill-rule="evenodd" clip-rule="evenodd" d="M108.378 21.5967H110.221V14.9653H108.378V21.5967Z" fill="#0081FF"/>
<path fill-rule="evenodd" clip-rule="evenodd" d="M108.378 13.9609H110.221V12.5659H108.378V13.9609Z" fill="#0081FF"/>
<path fill-rule="evenodd" clip-rule="evenodd" d="M114.979 20.5919C114.858 20.5919 114.741 20.5868 114.65 20.5838C113.264 20.5148 113.073 19.7944 113.073 18.157C113.073 17.3784 113.129 16.8584 113.302 16.5179C113.474 16.1765 113.763 16.0134 114.227 15.9495C114.589 15.9033 114.951 15.9337 115.244 15.9877L115.511 16.0472V20.5628C115.354 20.5649 115.141 20.5919 114.979 20.5919ZM114.227 14.8304C111.851 14.8304 111.142 16.0939 111.142 18.1343C111.142 20.4296 111.788 21.7205 114.921 21.7205C115.292 21.7205 115.641 21.7029 116.03 21.6738L117.373 21.5594V12.3223H115.511V14.9101C115.153 14.8629 114.713 14.8304 114.227 14.8304Z" fill="#0081FF"/>
<path fill-rule="evenodd" clip-rule="evenodd" d="M125.597 21.5885H127.431V16.1478C127.77 16.0583 128.299 15.9495 128.787 15.9495C129.651 15.9495 130.038 16.3676 130.122 17.5741L130.139 18.1403V21.5885H132.01V18.1403C132.01 17.0687 131.806 16.2412 131.3 15.6814C130.796 15.1216 129.99 14.83 128.787 14.83C127.805 14.83 126.923 15.0163 125.997 15.3499L125.597 15.5015V21.5885Z" fill="#0081FF"/>
<path fill-rule="evenodd" clip-rule="evenodd" d="M133.544 13.4281V14.9957H132.407V16.12H133.544V19.408C133.544 20.9623 133.825 21.7204 135.459 21.7204C135.683 21.7204 136.1 21.7157 136.674 21.6318L137.128 21.5543L136.909 20.4527C136.402 20.4985 136.113 20.5482 135.826 20.5045C135.583 20.4702 135.489 20.2993 135.457 19.8946L135.443 19.408V16.12H136.914V14.9957H135.443V13.4281H133.544Z" fill="#0081FF"/>
<path fill-rule="evenodd" clip-rule="evenodd" d="M120.575 16.3294C120.782 16.0605 121.089 15.9559 121.516 15.9559C122.306 15.9559 122.687 16.263 122.804 17.234L122.838 17.6919H120.238C120.263 17.0327 120.369 16.5984 120.575 16.3294ZM121.634 20.5919C120.684 20.5919 120.366 20.1734 120.268 19.2414L120.238 18.8106H124.721V18.0456C124.721 15.8536 123.6 14.8351 121.446 14.8351C119.452 14.8351 118.283 15.7482 118.283 18.2731C118.283 19.2719 118.422 20.1332 118.908 20.7461C119.395 21.3581 120.227 21.7205 121.615 21.7205C122.298 21.7205 122.988 21.6553 123.72 21.5329L124.466 21.3919L124.269 20.2698C123.594 20.4218 122.259 20.5919 121.634 20.5919Z" fill="#0081FF"/>
<path fill-rule="evenodd" clip-rule="evenodd" d="M139.681 16.3368C139.887 16.0686 140.193 15.965 140.62 15.965C141.413 15.965 141.793 16.2734 141.908 17.2409L141.942 17.6966H139.344C139.369 17.0383 139.475 16.6053 139.681 16.3368ZM140.735 20.6005C139.789 20.6005 139.472 20.1782 139.374 19.2475L139.344 18.817H143.829V18.0568C143.829 15.8583 142.706 14.8398 140.553 14.8398C138.555 14.8398 137.394 15.756 137.394 18.2778C137.394 19.2775 137.532 20.1396 138.017 20.7513C138.502 21.3633 139.333 21.7252 140.719 21.7252C141.404 21.7252 142.097 21.661 142.828 21.5402L143.574 21.4006L143.371 20.2818C142.7 20.4249 141.367 20.6005 140.735 20.6005Z" fill="#0081FF"/>
<path fill-rule="evenodd" clip-rule="evenodd" d="M107.296 20.3846C106.594 20.5277 105.891 20.5975 105.513 20.6108C104.881 20.6425 104.505 20.526 104.287 20.1688C104.069 19.812 104.009 19.2149 104.009 18.2864C104.009 16.428 104.251 15.8926 105.513 15.9478C105.891 15.9654 106.699 16.1367 107.299 16.1963L107.473 15.1114C106.881 15.0064 106.107 14.863 105.579 14.8428C102.761 14.7195 102.077 15.9059 102.077 18.2864C102.077 20.6694 102.767 21.8374 105.579 21.7256C106.147 21.7051 106.915 21.5997 107.517 21.4841L107.296 20.3846Z" fill="#0081FF"/>
<path fill-rule="evenodd" clip-rule="evenodd" d="M101.558 20.3846C100.857 20.5277 100.155 20.5975 99.7735 20.6108C99.1415 20.6425 98.7665 20.526 98.5492 20.1688C98.3318 19.812 98.2725 19.2149 98.2725 18.2864C98.2725 16.428 98.509 15.8926 99.7735 15.9478C100.155 15.9654 100.961 16.1367 101.558 16.1963L101.734 15.1114C101.147 15.0064 100.37 14.863 99.8367 14.8428C97.0238 14.7195 96.341 15.9059 96.341 18.2864C96.341 20.6694 97.0302 21.8374 99.8393 21.7256C100.41 21.7051 101.18 21.5997 101.778 21.4841L101.558 20.3846Z" fill="#0081FF"/>
<path fill-rule="evenodd" clip-rule="evenodd" d="M91.2746 20.4013C89.1924 20.4013 88.7807 19.5289 88.7807 16.777C88.7807 14.1755 89.4725 13.5074 91.2746 13.5074C92.0194 13.5074 92.6245 13.7177 93.0434 14.2355C93.4623 14.7537 93.6951 15.5795 93.6951 16.8113C93.6951 19.2085 93.3765 20.2664 91.641 20.3893L91.2746 20.4013ZM91.2746 12.2195C88.2533 12.2195 86.8612 13.5117 86.8612 16.777C86.8612 18.5147 87.1008 19.7456 87.7721 20.5427C88.4438 21.3393 89.5464 21.7016 91.2746 21.7016C94.5414 21.7016 95.4925 20.233 95.5979 17.3968L95.6086 16.8113C95.6086 13.584 94.0307 12.2195 91.2746 12.2195Z" fill="#0081FF"/>
<path fill-rule="evenodd" clip-rule="evenodd" d="M14.2486 2.91663L25.5809 14.2816L14.2486 25.6406L9.02343 20.4042L11.6634 17.7658L14.2486 20.3545L20.3104 14.2816L14.2486 8.20229L5.54436 16.9216L2.91083 14.2816L14.2486 2.91663ZM14.2461 31.7692L2.91382 20.4047L14.2461 9.0444L19.4666 14.2744L16.8326 16.917L14.2461 14.3314L8.18473 20.4047L14.2461 26.4797L22.9474 17.7629L25.5852 20.4047L14.2461 31.7692Z" fill="#0081FF"/>
</svg>
