<svg width="48" height="48" viewBox="0 0 48 48" fill="none" xmlns="http://www.w3.org/2000/svg">
<path fill-rule="evenodd" clip-rule="evenodd" d="M37.4732 40.051C37.5042 39.322 37.7142 39.096 38.1742 39.096C38.6542 39.096 38.8632 39.322 38.8952 40.051H37.4732ZM39.9072 40.245C39.9072 39.048 39.3112 38.496 38.1372 38.496C37.0572 38.496 36.4122 38.995 36.4122 40.37C36.4122 41.447 36.7272 42.22 38.2352 42.22C38.7262 42.22 39.2262 42.172 39.7782 42.047L39.6612 41.447C39.3032 41.515 38.5732 41.619 38.2352 41.619C37.6462 41.619 37.5042 41.322 37.4732 40.649H39.9072V40.245ZM27.1062 40.039C27.1342 39.322 27.3432 39.096 27.7952 39.096C28.2942 39.096 28.4882 39.314 28.5162 40.039H27.1062ZM27.7632 38.496C26.6742 38.496 26.0372 38.995 26.0372 40.37C26.0372 41.439 26.3482 42.22 27.8552 42.22C28.3512 42.22 28.8552 42.164 29.4032 42.047L29.2942 41.439C28.9272 41.515 28.1982 41.619 27.8712 41.619C27.2792 41.619 27.1342 41.322 27.1062 40.649H29.5482V40.233C29.5482 39.048 28.9272 38.496 27.7632 38.496ZM35.5662 41.572C35.3932 41.539 35.3652 41.39 35.3652 40.975V39.197H36.1592V38.58H35.3652V37.73H34.3322V38.58H33.7082V39.197H34.3322V40.975C34.3322 41.813 34.4822 42.22 35.3722 42.22C35.5182 42.22 35.8402 42.22 36.2762 42.132L36.1592 41.539C35.8882 41.572 35.7192 41.587 35.5662 41.572ZM31.7442 38.488C31.1322 38.488 30.6002 38.624 30.0162 38.855V42.148H31.0152V39.213C31.1972 39.165 31.4872 39.096 31.7442 39.096C32.2862 39.096 32.4872 39.399 32.4872 40.293V42.148H33.4982V40.293C33.4982 39.128 33.0512 38.488 31.7442 38.488ZM24.5462 41.591C24.4572 41.591 24.3402 41.619 24.2472 41.619H24.0782C23.3282 41.572 23.2202 41.18 23.2202 40.297C23.2202 39.463 23.3372 39.165 23.8442 39.096C24.1032 39.076 24.3692 39.096 24.5462 39.153V41.591ZM24.5462 38.544C24.3402 38.512 24.1032 38.488 23.8442 38.488C22.5632 38.488 22.1762 39.181 22.1762 40.293C22.1762 41.515 22.5152 42.22 24.2152 42.22C24.6222 42.22 24.9692 42.188 25.5462 42.132V37.138H24.5462V38.544ZM20.6682 38.021H21.6722V37.271H20.6682V38.021ZM20.6682 42.155H21.6722V38.568H20.6682V42.155ZM11.3902 41.507C10.2612 41.507 10.0362 41.035 10.0362 39.556C10.0362 38.149 10.4032 37.775 11.3902 37.775C12.1882 37.775 12.7032 38.222 12.7032 39.564C12.7032 40.954 12.5022 41.507 11.3902 41.507ZM11.3902 37.085C9.74521 37.085 8.99921 37.775 8.99921 39.556C8.99921 41.43 9.51221 42.22 11.3902 42.22C13.2682 42.22 13.7362 41.305 13.7362 39.564C13.7362 37.815 12.8892 37.085 11.3902 37.085ZM15.9972 41.623C15.3242 41.648 15.1752 41.377 15.1752 40.37C15.1752 39.363 15.3242 39.076 15.9972 39.096C16.2062 39.096 16.6462 39.205 16.9682 39.23L17.0692 38.645C16.7392 38.58 16.3202 38.512 16.0342 38.496C14.5092 38.432 14.1392 39.076 14.1392 40.37C14.1392 41.648 14.5092 42.288 16.0342 42.22C16.3482 42.22 16.7582 42.164 17.0892 42.099L16.9682 41.502C16.5892 41.579 16.2062 41.619 15.9972 41.623ZM19.1132 41.623C18.4312 41.648 18.2982 41.377 18.2982 40.37C18.2982 39.363 18.4312 39.076 19.1132 39.096C19.3152 39.096 19.7572 39.205 20.0962 39.23L20.1852 38.645C19.8632 38.58 19.4402 38.512 19.1532 38.496C17.6252 38.432 17.2502 39.076 17.2502 40.37C17.2502 41.648 17.6252 42.288 19.1532 42.22C19.4552 42.22 19.8782 42.164 20.2012 42.099L20.0962 41.502C19.7052 41.579 19.3152 41.619 19.1132 41.623ZM24.4572 10.063L29.1332 14.735L24.4572 19.403L22.4702 17.419L20.4352 19.443L24.4572 23.461L33.1882 14.735L24.4572 6L15.7192 14.735L17.7502 16.77L24.4572 10.063ZM33.1882 19.443L31.1612 17.411L24.4572 24.114L19.7822 19.443L24.4572 14.763L26.4492 16.762L28.4762 14.727L24.4572 10.708L15.7192 19.443L24.4572 28.173L33.1882 19.443ZM20.4112 31.47C19.7982 31.47 19.2662 31.595 18.6772 31.821V35.122H19.6772V32.172C19.8632 32.127 20.1452 32.072 20.4112 32.072C20.9512 32.072 21.1442 32.349 21.1442 33.247V35.122H22.1602V33.247C22.1602 32.095 21.7122 31.47 20.4112 31.47ZM36.5662 32.072C37.0572 32.072 37.2592 32.288 37.2832 33.022H35.8652C35.9052 32.305 36.0982 32.072 36.5662 32.072ZM36.6212 35.198C37.1062 35.198 37.6142 35.134 38.1742 35.022L38.0572 34.416C37.6942 34.497 36.9602 34.586 36.6212 34.586C36.0342 34.586 35.9052 34.296 35.8652 33.611H38.3032V33.199C38.3032 32.01 37.6992 31.47 36.5252 31.47C35.4452 31.47 34.8082 31.958 34.8082 33.328C34.8082 34.405 35.1072 35.198 36.6212 35.198ZM33.3852 32.127V34.562C33.3852 34.562 33.2122 34.586 32.9132 34.573C32.1612 34.53 32.0602 34.158 32.0602 33.264C32.0602 32.413 32.1802 32.143 32.6882 32.072C32.9382 32.038 33.2032 32.072 33.3852 32.127ZM31.0072 33.247C31.0072 34.497 31.3582 35.191 33.0672 35.191C33.4662 35.191 33.8412 35.17 34.3932 35.106V30.104H33.3852V31.511C33.1882 31.483 32.9542 31.47 32.6882 31.47C31.3902 31.47 31.0072 32.148 31.0072 33.247ZM26.6222 33.264C26.6222 32.273 26.8392 32.072 27.4442 32.072C27.9322 32.072 28.2342 32.349 28.2342 33.272C28.2342 34.264 28.1182 34.586 27.4442 34.586C26.7632 34.586 26.6222 34.296 26.6222 33.264ZM29.2702 33.272C29.2702 32.01 28.5892 31.47 27.4442 31.47C26.1912 31.47 25.5782 31.986 25.5782 33.264C25.5782 34.594 26.0052 35.191 27.4442 35.191C28.9002 35.191 29.2702 34.514 29.2702 33.272ZM16.4602 33.405C16.7952 33.357 17.1342 33.357 17.1342 33.357V34.537C16.8562 34.57 16.6142 34.586 16.3762 34.537C16.0132 34.469 15.9242 34.239 15.9242 33.973C15.9242 33.618 16.1212 33.442 16.4602 33.405ZM16.2272 35.17C16.9082 35.223 17.5332 35.17 18.1462 35.081V32.675C18.1462 31.946 17.6822 31.47 16.6702 31.47C16.2352 31.47 15.8162 31.555 15.2272 31.668L15.3362 32.273C15.8962 32.167 16.3202 32.087 16.6702 32.087C17.0002 32.087 17.1342 32.252 17.1342 32.635V32.773C17.1342 32.773 16.6142 32.773 16.2062 32.821C15.2472 32.921 14.8802 33.357 14.8802 33.973C14.8802 34.647 15.3922 35.07 16.2272 35.17ZM11.6162 32.921H12.7282C13.0822 32.921 13.5782 32.921 13.5782 33.611C13.5782 34.272 13.3212 34.416 12.7732 34.416H11.6162V32.921ZM11.6162 30.801H12.6392C13.2242 30.801 13.3972 30.93 13.3972 31.43C13.3972 31.998 13.2242 32.204 12.7282 32.204H11.6162V30.801ZM14.6072 33.611C14.6072 32.998 14.3002 32.688 13.9382 32.506C14.2362 32.313 14.4122 31.97 14.4122 31.43C14.4122 30.564 13.7512 30.104 12.6392 30.104H10.6042V35.122H12.7732C13.7962 35.122 14.6072 34.755 14.6072 33.611ZM24.4502 32.072C24.6512 32.072 25.0982 32.167 25.4162 32.204L25.5222 31.607C25.1912 31.555 24.7682 31.483 24.4822 31.47C22.9582 31.402 22.5952 32.038 22.5952 33.336C22.5952 34.614 22.9582 35.247 24.4822 35.198C24.7962 35.191 25.2152 35.122 25.5372 35.054L25.4162 34.469C25.0372 34.546 24.6512 34.586 24.4502 34.586C23.7562 34.626 23.6272 34.34 23.6272 33.336C23.6272 32.321 23.7562 32.038 24.4502 32.072Z" fill="#3276AD"/>
</svg>
