<svg width="109" height="30" viewBox="0 0 109 30" fill="none" xmlns="http://www.w3.org/2000/svg">
<path d="M17.8294 3.91162H22.109C22.109 4.01734 22.109 4.12306 22.109 4.28164C22.109 5.3917 21.7298 6.34318 21.0256 7.08322C20.3213 7.82326 19.3462 8.19328 18.2086 8.19328C17.071 8.19328 16.0959 7.82326 15.3375 7.03036C14.5791 6.29032 14.1458 5.33884 14.1458 4.22878C14.1458 3.11872 14.525 2.16724 15.2834 1.4272C16.0418 0.687162 17.0169 0.264282 18.1545 0.264282C19.8879 0.264282 21.2422 1.11004 21.8381 2.4844L21.0256 2.7487C20.4838 1.6915 19.4546 1.11004 18.2086 1.11004C17.3419 1.11004 16.5835 1.4272 15.9876 2.00866C15.3917 2.59012 15.1208 3.33016 15.1208 4.22878C15.1208 5.1274 15.4459 5.81458 16.0418 6.4489C16.6376 7.03036 17.3961 7.34752 18.2628 7.34752C19.0754 7.34752 19.7254 7.08322 20.2671 6.60748C20.8089 6.13174 21.1339 5.49742 21.2422 4.70452H17.8294V3.91162Z" fill="#005CB9"/>
<path d="M28.9888 2.43152L28.9346 3.27728C28.8804 3.27728 28.7721 3.27728 28.6096 3.27728C27.1469 3.27728 26.3344 4.33448 26.3344 5.92028V8.08753H25.4676V2.48438H26.2802V3.85874C26.8219 2.90726 27.5803 2.43152 28.5554 2.43152C28.7721 2.43152 28.8804 2.43152 28.9888 2.43152Z" fill="#005CB9"/>
<path d="M36.952 2.48438V8.08753H36.0853V7.18891C35.5977 7.87609 34.8935 8.24611 33.9184 8.24611C33.2142 8.24611 32.6725 8.03467 32.2391 7.61179C31.8057 7.18891 31.589 6.60745 31.589 5.86741V2.48438H32.4558V5.65597C32.4558 6.71317 33.1058 7.40035 34.0267 7.40035C35.2185 7.40035 36.0311 6.60745 36.0311 5.18023V2.48438H36.952Z" fill="#005CB9"/>
<path d="M45.782 3.17157C46.3237 3.70016 46.6487 4.4402 46.6487 5.28596C46.6487 6.13172 46.3779 6.87176 45.782 7.40036C45.2403 7.92896 44.536 8.24612 43.7776 8.24612C42.8025 8.24612 42.0441 7.92896 41.5024 7.18892V9.9905H40.6357V2.48439H41.5024V3.383C42.0441 2.69583 42.8025 2.32581 43.7776 2.32581C44.536 2.32581 45.1861 2.59011 45.782 3.17157ZM45.1319 6.87176C45.5653 6.44888 45.7278 5.92028 45.7278 5.28596C45.7278 4.65164 45.5111 4.12304 45.1319 3.70016C44.7527 3.27728 44.211 3.11871 43.6151 3.11871C43.0734 3.11871 42.5317 3.33014 42.0983 3.75302C41.6649 4.1759 41.4483 4.65164 41.4483 5.33882C41.4483 5.97314 41.6649 6.50174 42.0983 6.92462C42.5317 7.3475 43.0192 7.50608 43.6151 7.50608C44.211 7.45322 44.6986 7.24178 45.1319 6.87176Z" fill="#005CB9"/>
<path d="M54.3953 3.17157C54.9912 3.70016 55.2621 4.38734 55.2621 5.28596C55.2621 6.13172 54.9912 6.8189 54.3953 7.40036C53.7994 7.98182 53.0952 8.24612 52.2284 8.24612C51.3617 8.24612 50.6575 7.98182 50.0616 7.40036C49.4657 6.8189 49.1948 6.13172 49.1948 5.28596C49.1948 4.4402 49.4657 3.75302 50.0616 3.17157C50.6575 2.59011 51.3617 2.32581 52.2284 2.32581C53.0952 2.32581 53.7994 2.59011 54.3953 3.17157ZM53.7452 6.8189C54.1786 6.39602 54.3953 5.86742 54.3953 5.2331C54.3953 4.59878 54.1786 4.07018 53.7452 3.70016C53.3119 3.27728 52.8243 3.06585 52.2284 3.06585C51.6326 3.06585 51.0908 3.27728 50.7116 3.70016C50.2783 4.12304 50.0616 4.59878 50.0616 5.2331C50.0616 5.86742 50.2783 6.39602 50.7116 6.8189C51.145 7.24178 51.6326 7.45322 52.2284 7.45322C52.8243 7.45322 53.3119 7.24178 53.7452 6.8189Z" fill="#005CB9"/>
<path d="M14.1136 18.0795L26.0187 29.8596L30.2743 25.6336L18.3693 13.8535L14.1136 18.0795Z" fill="#003764"/>
<path d="M17.2919 12.7969C16.1068 11.6348 14.2214 11.6348 13.0363 12.7969L0 25.6335L4.25564 29.8596L15.1372 19.0832C17.5074 16.7588 21.3321 16.7588 23.6484 19.0832L17.2919 12.7969Z" fill="#005CB9"/>
<path d="M70.7299 18.0795L82.6349 29.8596L86.8905 25.6336L74.9855 13.8535L70.7299 18.0795Z" fill="#003764"/>
<path d="M73.9081 12.7969C72.723 11.6348 70.8376 11.6348 69.6525 12.7969L56.5623 25.6335L60.818 29.8596L71.6995 19.0832C74.0697 16.7588 77.8944 16.7588 80.2108 19.0832L73.9081 12.7969Z" fill="#0060A4"/>
<path d="M44.765 23.7318L32.8062 11.9517L28.5505 16.1249L40.5094 27.905L44.765 23.7318Z" fill="#A32035"/>
<path d="M41.5868 28.9615C42.7719 30.1237 44.6573 30.1237 45.8424 28.9615L58.8787 16.1249L54.6231 11.8989L43.7415 22.6753C41.3713 24.9996 37.5466 24.9996 35.1764 22.6753L41.5868 28.9615Z" fill="#E1251B"/>
<path d="M90.0688 11.8989H95.7251V25.6335H90.0688V11.8989Z" fill="#003764"/>
<path d="M90.0688 27.007C90.0688 28.5389 91.3617 29.8067 92.9239 29.8067H108.6V24.26H95.7251C92.6007 24.26 90.0688 21.7772 90.0688 18.6605V27.007Z" fill="#0060A4"/>
</svg>
