<?xml version="1.0" encoding="utf-8"?>
<!-- Generator: Adobe Illustrator 25.3.1, SVG Export Plug-In . SVG Version: 6.00 Build 0)  -->
<svg version="1.1" id="Capa_1" xmlns="http://www.w3.org/2000/svg" xmlns:xlink="http://www.w3.org/1999/xlink" x="0px" y="0px"
	 viewBox="0 0 612 283.27" style="enable-background:new 0 0 612 283.27;" xml:space="preserve">
<style type="text/css">
	.st0{fill:#6FD5C3;}
	.st1{fill:#F8D22D;}
	.st2{fill:#3FAA35;}
	.st3{fill:#FFFFFF;}
	.st4{clip-path:url(#SVGID_2_);}
	.st5{clip-path:url(#SVGID_6_);}
	.st6{fill:#FEFEFE;}
</style>
<g>
	<g>
		<path class="st3" d="M102.3,130.83c-6.2-6.18-16.21-6.18-22.4,0l-68.38,68.3l22.32,22.37l57.13-57.24
			c12.35-12.36,32.39-12.36,44.77,0L102.3,130.83z"/>
		<path class="st3" d="M103.19,81.33h22.41c0.07,0.54,0.07,1.21,0.07,2.05c0,5.98-1.94,10.93-5.74,14.96
			c-3.81,4-8.65,5.99-14.56,5.99c-5.92,0-10.95-2.05-14.99-6.09c-4.06-4.05-6.11-9.06-6.11-14.92c0-5.86,2.01-10.87,6.05-14.92
			c4.05-4.05,9.06-6.1,14.93-6.1c8.94,0,16.19,4.41,19.1,11.72l-4.3,1.5c-2.84-5.73-8.22-8.76-14.81-8.76
			c-4.53,0-8.4,1.64-11.48,4.83c-3.08,3.21-4.67,7.07-4.67,11.72c0,4.64,1.58,8.57,4.71,11.78c3.21,3.2,7.09,4.77,11.67,4.77
			c4.23,0,7.73-1.33,10.58-3.98c2.84-2.66,4.53-6.05,5.03-10.21h-17.89V81.33z"/>
		<path class="st3" d="M161.36,73.73l-0.35,4.41c-0.38-0.06-0.98-0.06-1.77-0.06c-7.67,0-11.96,5.61-11.96,14v11.48h-4.64V73.78
			h4.64v7.3c2.77-5.07,6.76-7.62,11.96-7.62C160.09,73.47,160.82,73.55,161.36,73.73"/>
		<path class="st3" d="M202.99,73.78v29.7h-4.65v-4.82c-2.55,3.75-6.29,5.61-11.24,5.61c-3.57,0-6.48-1.13-8.72-3.49
			c-2.16-2.36-3.25-5.38-3.25-9.19V73.78h4.64v16.97c0,5.55,3.33,9.23,8.23,9.23c6.34,0,10.33-4.34,10.33-11.89V73.78H202.99z"/>
		<path class="st3" d="M248.78,77.46c2.95,2.9,4.4,6.65,4.4,11.23c0,4.61-1.45,8.33-4.4,11.28c-2.92,2.92-6.41,4.35-10.45,4.35
			c-5.15,0-9.06-1.81-11.85-5.49v14.98h-4.6V73.79h4.6v4.77c2.78-3.7,6.7-5.51,11.85-5.51C242.37,73.05,245.86,74.5,248.78,77.46
			 M245.5,97.09c2.12-2.11,3.21-4.95,3.21-8.4c0-3.43-1.09-6.27-3.21-8.39c-2.11-2.11-4.77-3.21-7.91-3.21
			c-2.96,0-5.56,1.1-7.8,3.28c-2.24,2.11-3.32,4.89-3.32,8.32c0,3.39,1.08,6.17,3.32,8.33c2.23,2.12,4.83,3.22,7.8,3.22
			C240.73,100.24,243.39,99.21,245.5,97.09"/>
		<path class="st3" d="M293.71,77.53c3.08,2.89,4.6,6.58,4.6,11.1c0,4.54-1.51,8.28-4.6,11.24c-3.02,2.95-6.78,4.4-11.18,4.4
			c-4.46,0-8.21-1.45-11.3-4.4c-3.02-2.96-4.53-6.7-4.53-11.24c0-4.52,1.51-8.21,4.53-11.1c3.08-2.96,6.83-4.42,11.3-4.42
			C286.94,73.11,290.69,74.57,293.71,77.53 M290.46,96.97c2.23-2.18,3.32-4.95,3.32-8.33c0-3.32-1.09-6.09-3.32-8.21
			c-2.19-2.18-4.86-3.25-7.93-3.25c-3.14,0-5.8,1.08-8.03,3.25c-2.24,2.12-3.32,4.89-3.32,8.21c0,3.39,1.08,6.16,3.32,8.33
			c2.23,2.18,4.89,3.28,8.03,3.28C285.6,100.24,288.27,99.14,290.46,96.97"/>
		<path class="st3" d="M137.34,165.99c-12.43-11.24-31.58-10.88-43.54,1.1l54.32,54.41l22.32-22.37L137.34,165.99z"/>
		<path class="st3" d="M229.52,216.86c6.18,6.18,16.21,6.18,22.38,0l68.39-68.3l-22.32-22.37l-57.13,57.24
			c-12.36,12.36-32.41,12.36-44.76,0L229.52,216.86z"/>
		<path class="st3" d="M194.46,181.69c12.43,11.24,31.58,10.9,43.55-1.09l-54.32-54.4l-22.32,22.36L194.46,181.69z"/>
		<path class="st3" d="M398.37,130.83c-6.18-6.18-16.2-6.18-22.38,0l-68.39,68.3l22.32,22.37l57.13-57.24
			c12.36-12.38,32.41-12.38,44.77,0L398.37,130.83z"/>
		<path class="st3" d="M389.86,167.09l54.34,54.41l22.32-22.37l-33.1-33.15C420.99,154.75,401.83,155.1,389.86,167.09"/>
		<path class="st3" d="M483.63,205.57c0,8.75,7.09,15.83,15.83,15.83l81.68,0.06l0.03-31.6l-65.9,0.08
			c-17.49,0.01-31.65-14.17-31.65-31.65L483.63,205.57z"/>
		<path class="st3" d="M483.71,155.92c0.84,16.74,14.63,30.03,31.56,30.02l0.06-59.75l-31.59,0.01L483.71,155.92z"/>
	</g>
</g>
</svg>
