<svg width="115" height="9" viewBox="0 0 115 9" fill="none" xmlns="http://www.w3.org/2000/svg">
<path fill-rule="evenodd" clip-rule="evenodd" d="M4.49167 2.21057L2.88831 6.62468L1.28568 2.21057L0.719963 2.21057L2.65675 7.36847H3.10302L5.03979 2.21057L4.49167 2.21057Z" fill="#838F9A"/>
<path fill-rule="evenodd" clip-rule="evenodd" d="M7.42293 2.21057L7.42293 7.36847H7.91971L7.91971 2.21057L7.42293 2.21057Z" fill="#838F9A"/>
<path fill-rule="evenodd" clip-rule="evenodd" d="M10.0796 4.80289V4.78532C10.0796 3.41732 11.0377 2.21057 12.4563 2.21057C13.2606 2.21057 13.7582 2.45207 14.2279 2.87241L13.8841 3.30115C13.5132 2.96183 13.1068 2.72873 12.4385 2.72873C11.39 2.72873 10.6313 3.65882 10.6313 4.76697V4.78532C10.6313 5.97372 11.363 6.85871 12.5103 6.85871C13.0535 6.85871 13.5588 6.63555 13.8841 6.35813V5.12464L12.4385 5.12464V4.61489L14.3994 4.61489V6.59963C13.9567 7.01997 13.2876 7.36847 12.4926 7.36847C11.0014 7.36847 10.0796 6.22439 10.0796 4.80289Z" fill="#838F9A"/>
<path fill-rule="evenodd" clip-rule="evenodd" d="M16.7825 2.21057L16.7825 7.36847H17.2793L17.2793 2.21057L16.7825 2.21057Z" fill="#838F9A"/>
<path fill-rule="evenodd" clip-rule="evenodd" d="M19.4393 2.21057H19.9262L19.9262 6.8326L22.3192 6.8326V7.36847L19.4393 7.36847L19.4393 2.21057Z" fill="#838F9A"/>
<path fill-rule="evenodd" clip-rule="evenodd" d="M27.6017 5.49615L26.639 2.88935L25.6686 5.49615L27.6017 5.49615ZM26.4121 2.21057L26.8658 2.21057L28.7989 7.36847H28.2892L27.7884 6.01955L25.4743 6.01955L24.9722 7.36847H24.4791L26.4121 2.21057Z" fill="#838F9A"/>
<path fill-rule="evenodd" clip-rule="evenodd" d="M33.1082 6.8326C34.139 6.8326 34.8026 5.94503 34.8026 4.8077V4.78952C34.8026 3.65219 34.139 2.74644 33.1082 2.74644L32.1394 2.74644V6.8326L33.1082 6.8326ZM31.6788 2.21057L33.1082 2.21057C34.3887 2.21057 35.2786 3.32893 35.2786 4.77134V4.78952C35.2786 6.24062 34.3887 7.36847 33.1082 7.36847L31.6788 7.36847L31.6788 2.21057Z" fill="#838F9A"/>
<path fill-rule="evenodd" clip-rule="evenodd" d="M41.2655 4.80289V4.78532C41.2655 3.64965 40.5628 2.72873 39.5943 2.72873C38.6258 2.72873 37.9314 3.64048 37.9314 4.76697V4.78532C37.9314 5.92022 38.6417 6.84114 39.6109 6.84114C40.5793 6.84114 41.2655 5.92939 41.2655 4.80289ZM37.4385 4.80289V4.78532C37.4385 3.40814 38.3186 2.21057 39.6109 2.21057C40.8941 2.21057 41.7584 3.39974 41.7584 4.76697V4.78532C41.7584 6.16172 40.8858 7.36847 39.5943 7.36847C38.3028 7.36847 37.4385 6.17089 37.4385 4.80289Z" fill="#838F9A"/>
<path fill-rule="evenodd" clip-rule="evenodd" d="M44.6383 3.96261L44.9356 3.60215C45.1988 3.84013 45.4714 3.97871 45.8116 3.97871C46.1177 3.97871 46.3133 3.83173 46.3133 3.61895V3.60215C46.3133 3.40618 46.1948 3.29139 45.6837 3.1682C45.089 3.02122 44.7488 2.84134 44.7488 2.3087C44.7488 1.81806 45.1479 1.47369 45.7011 1.47369C46.109 1.47369 46.4325 1.60528 46.7131 1.83415L46.4492 2.21071C46.2028 2.02243 45.9476 1.91604 45.6924 1.91604C45.4118 1.91604 45.2417 2.07143 45.2417 2.25971V2.2681C45.2417 2.48928 45.3696 2.58727 45.9047 2.71815C46.4921 2.86584 46.7982 3.07861 46.7982 3.55316V3.56996C46.7982 4.1019 46.3896 4.42106 45.8036 4.42106C45.3784 4.42106 44.9785 4.27408 44.6383 3.96261Z" fill="#838F9A"/>
<path fill-rule="evenodd" clip-rule="evenodd" d="M47.5182 3.14259V1.47369L47.9638 1.47369V3.12626C47.9638 3.66576 48.2018 3.9561 48.6014 3.9561C48.9938 3.9561 49.2318 3.68209 49.2318 3.14259V1.47369L49.6781 1.47369V3.12626C49.6781 3.98946 49.2554 4.42106 48.5942 4.42106C47.9329 4.42106 47.5182 3.98946 47.5182 3.14259Z" fill="#838F9A"/>
<path fill-rule="evenodd" clip-rule="evenodd" d="M51.4609 3.00641C51.8266 3.00641 52.065 2.78755 52.065 2.47583C52.065 2.12235 51.8266 1.94524 51.4609 1.94524L50.8917 1.94524V3.00641L51.4609 3.00641ZM50.398 1.47369L51.5038 1.47369C52.1501 1.47369 52.558 1.86965 52.558 2.45927V2.46719C52.558 3.13312 52.0563 3.46932 51.4442 3.46932L50.8917 3.46932V4.42106H50.398V1.47369Z" fill="#838F9A"/>
<path fill-rule="evenodd" clip-rule="evenodd" d="M53.2779 1.47369L55.4116 1.47369V1.9366L53.7877 1.9366V2.70332L55.2276 2.70332V3.16623L53.7877 3.16623V3.95743L55.4378 3.95743V4.42106L53.2779 4.42106V1.47369Z" fill="#838F9A"/>
<path fill-rule="evenodd" clip-rule="evenodd" d="M57.2573 2.93046C57.5744 2.93046 57.7835 2.74539 57.7835 2.44223V2.43359C57.7835 2.12178 57.5823 1.94536 57.2573 1.94536L56.6066 1.94536V2.93046L57.2573 2.93046ZM56.1578 1.47369L57.2877 1.47369C57.6134 1.47369 57.861 1.58243 58.0232 1.76821C58.1549 1.92808 58.233 2.14699 58.233 2.40838C58.233 2.89661 57.9848 3.18321 57.6286 3.30131L58.3177 4.42106H57.7915L57.164 3.39348H57.1567H56.6066V4.42106H56.1578V1.47369Z" fill="#838F9A"/>
<path fill-rule="evenodd" clip-rule="evenodd" d="M58.5488 1.47369V4.42106H59.0377V1.47369L58.5488 1.47369Z" fill="#838F9A"/>
<path fill-rule="evenodd" clip-rule="evenodd" d="M59.7577 1.47369L60.1651 1.47369L61.4869 3.51108V1.47369L61.9176 1.47369V4.42106H61.5547L60.1877 2.32392V4.42106H59.7577V1.47369Z" fill="#838F9A"/>
<path fill-rule="evenodd" clip-rule="evenodd" d="M63.4817 1.95388L62.6377 1.95388V1.47369L64.7976 1.47369V1.95388L63.9529 1.95388V4.42106H63.4817V1.95388Z" fill="#838F9A"/>
<path fill-rule="evenodd" clip-rule="evenodd" d="M65.5176 1.47369L67.652 1.47369V1.9366L66.0273 1.9366V2.70332L67.4673 2.70332V3.16623L66.0273 3.16623V3.95743L67.6775 3.95743V4.42106L65.5176 4.42106V1.47369Z" fill="#838F9A"/>
<path fill-rule="evenodd" clip-rule="evenodd" d="M68.3975 1.47369L68.8055 1.47369L70.1273 3.51108V1.47369L70.5574 1.47369V4.42106H70.1945L68.8281 2.32392V4.42106H68.3975V1.47369Z" fill="#838F9A"/>
<path fill-rule="evenodd" clip-rule="evenodd" d="M72.172 3.94951C72.6663 3.94951 72.9933 3.537 72.9933 2.95602V2.94738C72.9933 2.37504 72.6663 1.94524 72.172 1.94524L71.6989 1.94524V3.94951L72.172 3.94951ZM71.2773 1.47369L72.172 1.47369C72.9206 1.47369 73.4373 2.10507 73.4373 2.93874V2.94738C73.4373 3.77241 72.9206 4.42106 72.172 4.42106L71.2773 4.42106V1.47369Z" fill="#838F9A"/>
<path fill-rule="evenodd" clip-rule="evenodd" d="M74.1572 1.47369L76.2909 1.47369V1.9366L74.667 1.9366V2.70332L76.1069 2.70332V3.16623L74.667 3.16623V3.95743L76.3171 3.95743V4.42106L74.1572 4.42106V1.47369Z" fill="#838F9A"/>
<path fill-rule="evenodd" clip-rule="evenodd" d="M77.0371 1.47369L77.4446 1.47369L78.7663 3.51108V1.47369L79.197 1.47369V4.42106H78.8341L77.4672 2.32392V4.42106H77.0371V1.47369Z" fill="#838F9A"/>
<path fill-rule="evenodd" clip-rule="evenodd" d="M79.917 2.95573V2.94738C79.917 2.13361 80.589 1.47369 81.5399 1.47369C82.1151 1.47369 82.4695 1.66095 82.7682 1.9213L82.4129 2.28815C82.1626 2.07653 81.8943 1.93801 81.5301 1.93801C80.9344 1.93801 80.493 2.37726 80.493 2.93972V2.94738C80.493 3.50079 80.9344 3.95675 81.5301 3.95675C81.9231 3.95675 82.1626 3.81892 82.4408 3.59059L82.7969 3.91638C82.4605 4.22545 82.1052 4.42106 81.5202 4.42106C80.5988 4.42106 79.917 3.77785 79.917 2.95573Z" fill="#838F9A"/>
<path fill-rule="evenodd" clip-rule="evenodd" d="M83.028 1.47369V4.42106H83.5168V1.47369L83.028 1.47369Z" fill="#838F9A"/>
<path fill-rule="evenodd" clip-rule="evenodd" d="M86.1478 3.26039L85.6684 2.09186L85.1969 3.26039L86.1478 3.26039ZM85.4489 1.47369L85.9038 1.47369L87.1166 4.42106H86.6027L86.3248 3.71152L85.0199 3.71152L84.7334 4.42106H84.2367L85.4489 1.47369Z" fill="#838F9A"/>
<path fill-rule="evenodd" clip-rule="evenodd" d="M88.5565 1.47369L90.7165 1.47369V1.94524L89.0704 1.94524V2.74508L90.5303 2.74508V3.21663L89.0704 3.21663V4.42106H88.5565V1.47369Z" fill="#838F9A"/>
<path fill-rule="evenodd" clip-rule="evenodd" d="M91.6675 1.47369V4.42106H92.1564V1.47369L91.6675 1.47369Z" fill="#838F9A"/>
<path fill-rule="evenodd" clip-rule="evenodd" d="M92.8764 1.47369L93.2838 1.47369L94.6056 3.51108V1.47369L95.0363 1.47369V4.42106H94.6734L93.3064 2.32392V4.42106H92.8764V1.47369Z" fill="#838F9A"/>
<path fill-rule="evenodd" clip-rule="evenodd" d="M97.6671 3.26039L97.1876 2.09186L96.716 3.26039L97.6671 3.26039ZM96.968 1.47369L97.423 1.47369L98.6361 4.42106H98.1221L97.8442 3.71152L96.5396 3.71152L96.2523 4.42106H95.7563L96.968 1.47369Z" fill="#838F9A"/>
<path fill-rule="evenodd" clip-rule="evenodd" d="M99.3561 1.47369L99.7641 1.47369L101.085 3.51108V1.47369L101.516 1.47369V4.42106H101.153L99.7867 2.32392V4.42106H99.3561V1.47369Z" fill="#838F9A"/>
<path fill-rule="evenodd" clip-rule="evenodd" d="M101.516 2.95573V2.94738C101.516 2.13361 102.188 1.47369 103.139 1.47369C103.715 1.47369 104.069 1.66095 104.368 1.9213L104.012 2.28815C103.762 2.07653 103.494 1.93801 103.129 1.93801C102.534 1.93801 102.092 2.37726 102.092 2.93972V2.94738C102.092 3.50079 102.534 3.95675 103.129 3.95675C103.523 3.95675 103.762 3.81892 104.041 3.59059L104.396 3.91638C104.06 4.22545 103.705 4.42106 103.119 4.42106C102.198 4.42106 101.516 3.77785 101.516 2.95573Z" fill="#838F9A"/>
<path fill-rule="evenodd" clip-rule="evenodd" d="M104.627 1.47369V4.42106H105.116V1.47369L104.627 1.47369Z" fill="#838F9A"/>
<path fill-rule="evenodd" clip-rule="evenodd" d="M105.836 1.47369L107.97 1.47369V1.9366L106.345 1.9366V2.70332L107.786 2.70332V3.16623L106.345 3.16623V3.95743L107.996 3.95743V4.42106L105.836 4.42106V1.47369Z" fill="#838F9A"/>
<path fill-rule="evenodd" clip-rule="evenodd" d="M109.815 2.93046C110.132 2.93046 110.342 2.74539 110.342 2.44223V2.43359C110.342 2.12178 110.14 1.94536 109.815 1.94536L109.165 1.94536V2.93046L109.815 2.93046ZM108.716 1.47369L109.846 1.47369C110.171 1.47369 110.418 1.58243 110.581 1.76821C110.712 1.92808 110.79 2.14699 110.79 2.40838C110.79 2.89661 110.543 3.18321 110.187 3.30131L110.876 4.42106H110.35L109.722 3.39348H109.714H109.165V4.42106H108.716V1.47369Z" fill="#838F9A"/>
<path fill-rule="evenodd" clip-rule="evenodd" d="M113.507 3.26039L113.027 2.09186L112.556 3.26039L113.507 3.26039ZM112.808 1.47369L113.263 1.47369L114.476 4.42106H113.962L113.684 3.71152L112.379 3.71152L112.092 4.42106H111.596L112.808 1.47369Z" fill="#838F9A"/>
<path fill-rule="evenodd" clip-rule="evenodd" d="M66.4123 7.63372C66.9065 7.63372 67.2336 7.21256 67.2336 6.64022V6.63158C67.2336 6.0506 66.9065 5.62945 66.4123 5.62945H65.9391V7.63372L66.4123 7.63372ZM65.5176 5.1579H66.4123C67.1608 5.1579 67.6775 5.79791 67.6775 6.62294V6.63158C67.6775 7.46525 67.1608 8.10527 66.4123 8.10527H65.5176V5.1579Z" fill="#838F9A"/>
<path fill-rule="evenodd" clip-rule="evenodd" d="M68.3975 5.1579L70.5311 5.1579V5.62081L68.9072 5.62081V6.38753L70.3472 6.38753V6.85044L68.9072 6.85044V7.64164L70.5574 7.64164V8.10527H68.3975V5.1579Z" fill="#838F9A"/>
<path fill-rule="evenodd" clip-rule="evenodd" d="M71.9973 6.63994V6.63158C71.9973 5.82548 72.6596 5.1579 73.6199 5.1579C74.196 5.1579 74.5506 5.3375 74.8485 5.59785L74.4931 5.97236C74.2428 5.76074 73.9744 5.61386 73.61 5.61386C73.0142 5.61386 72.5726 6.06981 72.5726 6.62392V6.63158C72.5726 7.19335 73.0142 7.64931 73.61 7.64931C74.0031 7.64931 74.2526 7.50312 74.5218 7.2748L74.8772 7.60058C74.5415 7.91035 74.1862 8.10527 73.6002 8.10527C72.6785 8.10527 71.9973 7.4544 71.9973 6.63994Z" fill="#838F9A"/>
<path fill-rule="evenodd" clip-rule="evenodd" d="M77.2453 6.63994V6.63158C77.2453 6.07817 76.8591 5.61386 76.3128 5.61386C75.7673 5.61386 75.3811 6.06981 75.3811 6.62392V6.63158C75.3811 7.18569 75.7759 7.64931 76.3214 7.64931C76.8677 7.64931 77.2453 7.19335 77.2453 6.63994ZM74.8772 6.63994V6.63158C74.8772 5.82548 75.473 5.1579 76.3214 5.1579C77.1613 5.1579 77.7571 5.82548 77.7571 6.62392V6.63158C77.7571 7.43769 77.1613 8.10527 76.3128 8.10527C75.4651 8.10527 74.8772 7.43769 74.8772 6.63994Z" fill="#838F9A"/>
<path fill-rule="evenodd" clip-rule="evenodd" d="M78.477 5.1579H79.0216V7.63372L80.637 7.63372V8.10527H78.477V5.1579Z" fill="#838F9A"/>
<path fill-rule="evenodd" clip-rule="evenodd" d="M83.0043 6.63994V6.63158C83.0043 6.07817 82.6181 5.61386 82.0726 5.61386C81.5263 5.61386 81.1401 6.06981 81.1401 6.62392V6.63158C81.1401 7.18569 81.535 7.64931 82.0812 7.64931C82.6268 7.64931 83.0043 7.19335 83.0043 6.63994ZM80.637 6.63994V6.63158C80.637 5.82548 81.2327 5.1579 82.0812 5.1579C82.9203 5.1579 83.5168 5.82548 83.5168 6.62392V6.63158C83.5168 7.43769 82.9203 8.10527 82.0726 8.10527C81.2249 8.10527 80.637 7.43769 80.637 6.63994Z" fill="#838F9A"/>
<path fill-rule="evenodd" clip-rule="evenodd" d="M83.5167 5.1579L84.0702 5.1579L84.9521 6.55599L85.844 5.1579H86.3966V8.10527H85.8798V5.99157L84.9521 7.38102H84.943L84.0252 6.00021V8.10527H83.5167V5.1579Z" fill="#838F9A"/>
<path fill-rule="evenodd" clip-rule="evenodd" d="M88.3268 7.65027C88.6352 7.65027 88.8253 7.50701 88.8253 7.2464V7.22912C88.8253 6.98506 88.6508 6.8418 88.2869 6.8418L87.5671 6.8418V7.65027L88.3268 7.65027ZM88.1928 6.40409C88.4851 6.40409 88.6826 6.26946 88.6826 6.00021V5.99157C88.6826 5.76407 88.5169 5.61289 88.2246 5.61289H87.5671V6.40409L88.1928 6.40409ZM87.1166 5.1579H88.2794C88.5805 5.1579 88.8098 5.25077 88.9599 5.41923C89.0783 5.54522 89.1338 5.71368 89.1338 5.90734V5.91598C89.1338 6.26946 88.9599 6.45448 88.7624 6.57255C89.0709 6.69062 89.2765 6.89292 89.2765 7.28815V7.29679C89.2765 7.81874 88.897 8.10527 88.3187 8.10527H87.1166V5.1579Z" fill="#838F9A"/>
<path fill-rule="evenodd" clip-rule="evenodd" d="M90.2276 5.1579V8.10527H90.7165V5.1579H90.2276Z" fill="#838F9A"/>
<path fill-rule="evenodd" clip-rule="evenodd" d="M93.348 6.94121L92.8677 5.76928L92.3969 6.94121L93.348 6.94121ZM92.6489 5.1579H93.1039L94.3163 8.10527H93.803L93.5251 7.40153L92.2198 7.40153L91.9332 8.10527H91.4364L92.6489 5.1579Z" fill="#838F9A"/>
<path fill-rule="evenodd" clip-rule="evenodd" d="M-7.62939e-06 8.10522V8.8288L41.7584 8.8288V8.10522L-7.62939e-06 8.10522Z" fill="#838F9A"/>
<path fill-rule="evenodd" clip-rule="evenodd" d="M-7.62939e-06 0V0.723579L41.7584 0.723579V0L-7.62939e-06 0Z" fill="#838F9A"/>
</svg>
