<svg width="192" height="64" viewBox="0 0 192 64" fill="none" xmlns="http://www.w3.org/2000/svg">
<path fill-rule="evenodd" clip-rule="evenodd" d="M100.8 12.36H94.44L86.04 27.84H85.92L83.52 12.36H77.28L81.12 35.04H87.84L100.8 12.36Z" fill="#E1001D"/>
<path fill-rule="evenodd" clip-rule="evenodd" d="M135.24 35.04H140.88L145.68 11.4H139.92L135.24 35.04Z" fill="#E1001D"/>
<path fill-rule="evenodd" clip-rule="evenodd" d="M173.04 33.84C174.72 34.56 177.12 35.64 180.6 35.28C186.48 34.68 189.48 33 189.96 28.8C190.56 23.28 181.44 25.2 181.32 22.56C181.32 21.36 183.24 20.88 184.56 20.88C186.6 20.88 188.64 21.96 190.44 22.92L191.28 18.48C189.12 17.76 185.88 17.4 184.44 17.4C180.12 17.4 175.32 19.8 175.32 23.76C175.32 29.52 183.96 27.6 183.96 30C183.96 31.44 181.8 31.68 180.84 31.68C179.16 31.68 176.4 31.08 174.12 29.16L173.04 33.84Z" fill="#E1001D"/>
<path fill-rule="evenodd" clip-rule="evenodd" d="M128.4 12.36H122.16L113.64 27.84H113.52L111.12 12.36H104.88L108.72 35.04H115.44L128.4 12.36Z" fill="#E1001D"/>
<path fill-rule="evenodd" clip-rule="evenodd" d="M144.84 35.04H150.6L155.28 11.4H149.52L144.84 35.04Z" fill="#E1001D"/>
<path d="M164.52 35.04H170.52C171.12 30 172.44 25.92 172.68 23.28C173.04 19.56 170.64 17.52 165.12 17.52C162.36 17.52 160.2 17.88 157.68 18.24L157.08 22.44C159.12 21.48 161.52 21.12 163.68 21.12C165.72 21.12 166.8 21.96 166.8 23.16C166.8 23.4 166.8 23.64 166.68 23.88C165.84 23.76 164.76 24 163.56 24C158.28 24.24 154.2 26.4 153.84 30.48C153.6 33.84 155.28 35.4 159 35.4C161.28 35.4 162.72 34.56 164.64 33.24V33.6L164.52 35.04ZM159.72 30.48C159.48 28.56 161.04 27.24 164.28 27.12C164.64 27.12 165.36 27 166.08 27C165.84 28.92 165.48 30.6 165.48 30.6C164.52 31.32 163.44 31.68 162.24 31.8C161.04 31.92 159.84 31.56 159.72 30.48Z" fill="#E1001D"/>
<path d="M53.7601 35.04H59.8801L62.4001 30.24H70.3201L70.8001 35.04H77.0401L73.2001 12.36H66.6001L53.7601 35.04ZM69.7201 26.16H64.5601L68.6401 18.6L69.7201 26.16Z" fill="#E1001D"/>
<path d="M125.52 35.04H131.28L134.64 18H128.88L125.52 35.04ZM129.36 15.48H135.48L136.32 11.4H130.2L129.36 15.48Z" fill="#E1001D"/>
<path d="M132.12 42.24C133.08 42.24 133.92 42.36 134.64 42.72C135.36 43.08 135.96 43.44 136.44 43.92C136.92 44.4 137.28 45 137.52 45.72C137.76 46.44 137.88 47.16 137.88 47.88C137.88 48.96 137.64 49.92 137.28 51C136.92 51.96 136.32 52.92 135.48 53.64C134.76 54.48 133.8 55.08 132.6 55.56C131.52 56.04 130.2 56.28 128.76 56.28H123.36L126.48 42.24H132.12ZM129.48 54.12C130.32 54.12 131.16 54 131.88 53.64C132.6 53.28 133.2 52.92 133.8 52.32C134.28 51.72 134.76 51.12 135 50.4C135.24 49.68 135.48 48.96 135.48 48.24C135.48 47.76 135.36 47.16 135.24 46.68C135.12 46.2 134.88 45.84 134.64 45.48C134.28 45.12 133.92 44.88 133.44 44.64C132.96 44.4 132.36 44.28 131.64 44.28H128.76L126.6 54.12H129.48Z" fill="#252B31"/>
<path d="M141 56.28H138.72L140.88 46.56H143.16L141 56.28ZM141.24 43.8C141.24 43.56 141.24 43.32 141.36 43.08C141.48 42.84 141.6 42.72 141.72 42.6C141.84 42.48 142.08 42.36 142.32 42.36C142.56 42.24 142.68 42.24 142.92 42.24C143.16 42.24 143.52 42.36 143.76 42.48C144 42.6 144.12 42.96 144.12 43.2C144.12 43.44 144.12 43.68 144 43.92C143.88 44.16 143.76 44.28 143.64 44.4C143.52 44.52 143.28 44.64 143.04 44.76C142.8 44.88 142.68 44.88 142.44 44.88C142.2 44.88 141.84 44.76 141.6 44.64C141.36 44.52 141.24 44.16 141.24 43.8Z" fill="#252B31"/>
<path d="M143.88 58.68C144.48 59.04 145.2 59.28 145.92 59.52C146.64 59.76 147.36 59.76 148.08 59.64C148.8 59.52 149.4 59.28 150 58.8C150.6 58.32 150.96 57.6 151.2 56.64L151.68 54.72C151.2 55.32 150.72 55.8 150 56.04C149.28 56.28 148.68 56.52 147.84 56.52C147.24 56.52 146.76 56.4 146.28 56.16C145.8 55.92 145.32 55.68 145.08 55.2C144.72 54.84 144.48 54.24 144.36 53.64C144.24 53.04 144.24 52.2 144.48 51.36C144.72 50.52 144.96 49.68 145.44 49.08C145.92 48.48 146.4 47.88 147 47.52C147.6 47.16 148.32 46.8 149.04 46.68C149.76 46.44 150.6 46.44 151.32 46.44C152.04 46.44 152.76 46.56 153.36 46.68C154.08 46.8 154.68 47.04 155.28 47.4L153.24 56.64C153 57.96 152.4 58.92 151.68 59.76C150.96 60.48 150.12 61.08 149.16 61.32C148.2 61.56 147.24 61.68 146.16 61.56C145.08 61.44 144.12 61.08 143.28 60.6L143.88 58.68ZM152.88 48.72C152.28 48.48 151.56 48.24 150.84 48.24C150.36 48.24 150 48.36 149.52 48.48C149.04 48.6 148.68 48.84 148.32 49.08C147.96 49.32 147.6 49.68 147.36 50.04C147.12 50.4 146.88 50.88 146.76 51.48C146.64 51.96 146.64 52.32 146.64 52.8C146.64 53.16 146.76 53.52 146.88 53.76C147 54 147.24 54.24 147.48 54.36C147.72 54.48 148.08 54.6 148.56 54.6C149.04 54.6 149.4 54.48 149.88 54.36C150.24 54.12 150.6 53.88 150.96 53.64C151.32 53.28 151.56 53.04 151.8 52.68C152.04 52.32 152.16 51.96 152.28 51.6L152.88 48.72Z" fill="#252B31"/>
<path d="M158.64 56.28H156.36L158.52 46.56H160.8L158.64 56.28ZM158.88 43.8C158.88 43.56 158.88 43.32 159 43.08C159.12 42.84 159.24 42.72 159.36 42.6C159.48 42.48 159.72 42.36 159.96 42.36C160.2 42.24 160.32 42.24 160.56 42.24C160.8 42.24 161.16 42.36 161.4 42.48C161.64 42.6 161.76 42.96 161.76 43.2C161.76 43.44 161.76 43.68 161.64 43.92C161.52 44.16 161.4 44.28 161.28 44.4C161.16 44.52 160.92 44.64 160.68 44.76C160.44 44.88 160.32 44.88 160.08 44.88C159.84 44.88 159.48 44.76 159.24 44.64C159 44.52 158.88 44.16 158.88 43.8Z" fill="#252B31"/>
<path fill-rule="evenodd" clip-rule="evenodd" d="M167.04 46.56H170.52L170.16 48.12H166.56L165.6 52.44C165.36 53.28 165.48 53.88 165.72 54.24C165.96 54.6 166.44 54.72 167.04 54.72C167.52 54.72 168.24 54.6 168.84 54.36L168.72 56.04C167.76 56.28 166.8 56.52 166.08 56.52C165.6 56.52 165.12 56.4 164.64 56.28C164.16 56.16 163.92 55.92 163.68 55.56C163.44 55.2 163.32 54.84 163.2 54.36C163.08 53.88 163.2 53.28 163.32 52.56L164.28 48.24L162.24 48.12L162.6 46.68H164.64L165.48 43.68H167.52L167.04 46.56Z" fill="#252B31"/>
<path d="M180.6 53.4C180.6 53.64 180.48 53.88 180.48 54C180.48 54.12 180.48 54.36 180.48 54.48C180.48 54.6 180.6 54.72 180.72 54.72C180.84 54.72 181.08 54.84 181.32 54.72L180.96 56.16C180.6 56.28 180.24 56.28 179.88 56.28C179.52 56.28 179.28 56.16 178.92 56.04C178.68 55.92 178.44 55.68 178.44 55.44C178.32 55.2 178.32 54.72 178.44 54.24C177.96 54.96 177.36 55.44 176.64 55.8C175.92 56.16 175.2 56.4 174.36 56.4C173.64 56.4 173.04 56.28 172.44 56.04C171.96 55.8 171.48 55.44 171.24 54.96C171 54.48 170.76 53.88 170.76 53.28C170.64 52.68 170.76 51.96 170.88 51.36C171.12 50.52 171.36 49.8 171.84 49.2C172.2 48.6 172.8 48.12 173.4 47.64C174 47.28 174.6 46.92 175.44 46.68C176.16 46.44 177 46.32 177.84 46.44C178.56 46.44 179.28 46.56 180 46.68C180.72 46.8 181.32 47.04 181.92 47.4L180.6 53.4ZM179.4 48.6C179.04 48.48 178.68 48.36 178.32 48.24C177.96 48.12 177.6 48.12 177.24 48.12C176.28 48.12 175.44 48.36 174.72 48.96C174 49.44 173.52 50.28 173.28 51.36C173.16 51.84 173.16 52.2 173.16 52.56C173.16 52.92 173.28 53.28 173.4 53.52C173.52 53.76 173.76 54 174 54.24C174.24 54.48 174.6 54.48 175.08 54.48C175.56 54.48 175.92 54.36 176.28 54.24C176.64 54.12 177 53.88 177.36 53.64C177.72 53.4 177.96 53.04 178.2 52.68C178.44 52.32 178.56 51.84 178.68 51.48L179.4 48.6Z" fill="#252B31"/>
<path fill-rule="evenodd" clip-rule="evenodd" d="M188.76 41.52L186.24 52.8C186.12 53.52 186.12 54 186.24 54.24C186.36 54.48 186.72 54.6 187.2 54.6C187.32 54.6 187.44 54.6 187.56 54.6C187.68 54.6 187.92 54.6 188.04 54.48L187.68 56.16C187.44 56.16 187.2 56.28 186.96 56.28C186.72 56.28 186.48 56.28 186.24 56.28C185.16 56.28 184.32 56.04 183.96 55.44C183.6 54.84 183.48 54 183.84 52.56L186.36 41.28H188.76V41.52Z" fill="#252B31"/>
<path fill-rule="evenodd" clip-rule="evenodd" d="M39.6117 9.94356C38.4996 13.2229 38.163 14.7527 39.6117 12.8989C47.9304 1.75325 57.0811 0 57.0811 0C51.0203 2.62987 46.8609 6.88775 46.8609 6.88775C47.9304 7.88961 48.6435 9.0167 49.3565 10.269C53.6347 18.91 47.9304 30.807 34.1451 37.9453C22.0234 44.2069 7.40617 42.7041 3.12795 34.0631C-1.15028 25.4221 4.55402 13.9007 17.9829 6.63729C26.777 1.87848 36.6407 1.37755 43.1769 4.50835C41.3454 6.35183 40.4808 7.38079 39.6117 9.94356Z" fill="url(#paint0_linear_515_16178)"/>
<path fill-rule="evenodd" clip-rule="evenodd" d="M43.1722 4.49161C34.2563 10.1061 29.8578 21.8342 29.8578 21.8342C24.1516 13.1005 10.8372 15.0968 10.8372 15.0968C31.2843 18.3407 29.8578 34.6852 29.8578 34.6852C31.641 25.702 38.0604 14.972 39.6059 12.851C47.9274 1.74674 57.081 0 57.081 0C50.305 0 43.1722 4.49161 43.1722 4.49161ZM25.1026 25.2029C25.1026 25.2029 12.7392 23.0819 12.7392 27.9478C12.7392 29.9441 14.7602 32.5642 21.4174 33.5623C22.6062 33.8118 26.6481 34.3109 29.2634 32.5642C29.2634 32.5642 27.718 36.0576 20.1097 35.4338C18.8021 35.309 11.0749 34.6852 8.34073 29.445C7.62745 28.0726 7.50858 24.08 13.2148 23.0819C16.4245 22.5828 22.1307 22.9571 25.1026 25.2029Z" fill="white"/>
<defs>
<linearGradient id="paint0_linear_515_16178" x1="4.49757" y1="29.8643" x2="51.2003" y2="-1.15942" gradientUnits="userSpaceOnUse">
<stop stop-color="#3157FA"/>
<stop offset="0.9979" stop-color="#0E199A"/>
</linearGradient>
</defs>
</svg>
