<svg width="48" height="48" viewBox="0 0 48 48" fill="none" xmlns="http://www.w3.org/2000/svg">
<path fill-rule="evenodd" clip-rule="evenodd" d="M31.8379 8.57666C34.3379 11.8437 32.2064 17.0231 27.0569 20.1207C21.9074 23.2184 15.7519 23.1088 13.2319 19.8717C10.5626 16.4155 12.8236 11.3954 17.9631 8.29778C22.2859 5.69812 27.3557 5.37939 30.3638 7.30174C31.9508 6.24228 33.7152 5.47646 35.573 5.04074C33.976 5.78871 32.4963 6.76509 31.1805 7.9392C31.4196 8.14465 31.6397 8.37135 31.8379 8.61651" fill="#DC211B"/>
<path fill-rule="evenodd" clip-rule="evenodd" d="M18.5802 32.8899C18.5395 33.1247 18.4439 33.3465 18.3013 33.5373C18.1699 33.7286 18.0045 33.894 17.8133 34.0254C17.5918 34.1559 17.354 34.2564 17.1061 34.3242C16.7804 34.4045 16.4454 34.4413 16.11 34.4338H13.9885L14.9845 29.4536H16.877C17.1653 29.4273 17.4553 29.4273 17.7436 29.4536C17.9361 29.477 18.1222 29.5379 18.2914 29.6329C18.4435 29.7175 18.5627 29.8508 18.63 30.0114C18.6831 30.1935 18.6831 30.387 18.63 30.5691C18.5775 30.8105 18.4683 31.0358 18.3113 31.2265C18.1463 31.423 17.9286 31.5681 17.6838 31.6449C17.9577 31.6957 18.2087 31.8316 18.4009 32.0333C18.4826 32.1547 18.5366 32.2926 18.559 32.4372C18.5814 32.5818 18.5716 32.7296 18.5304 32.87L18.5802 32.8899ZM17.1559 32.87C17.2041 32.7519 17.2041 32.6196 17.1559 32.5015C17.0992 32.4053 17.0114 32.3315 16.9069 32.2923C16.7957 32.2656 16.6824 32.2489 16.5682 32.2425H15.7614L15.5224 33.4975H16.3192C16.462 33.4933 16.6032 33.4664 16.7376 33.4178C16.8538 33.3706 16.9564 33.2953 17.0364 33.1987C17.1194 33.1075 17.1717 32.9925 17.1858 32.87H17.1559ZM17.2555 30.8082C17.2651 30.7288 17.2651 30.6485 17.2555 30.5691C17.2208 30.4863 17.157 30.419 17.0762 30.3799C16.9814 30.3407 16.8799 30.3204 16.7774 30.3201H16.1599L15.9507 31.3162H16.5881C16.6902 31.3347 16.7948 31.3347 16.8969 31.3162C16.9974 31.2803 17.0844 31.2142 17.1459 31.1269C17.2093 31.03 17.2532 30.9218 17.2754 30.8082" fill="#DC211B"/>
<path fill-rule="evenodd" clip-rule="evenodd" d="M21.1798 34.0253L20.9009 34.1947C20.81 34.2598 20.7133 34.3164 20.6121 34.364L20.2435 34.4835C20.0981 34.5033 19.9507 34.5033 19.8053 34.4835C19.6514 34.4883 19.4983 34.4606 19.3558 34.4023C19.2134 34.3439 19.0848 34.2562 18.9786 34.1449C18.8856 34.0232 18.822 33.8817 18.7926 33.7314C18.7633 33.5811 18.7689 33.4261 18.8092 33.2783C18.8436 33.0309 18.9433 32.7971 19.0981 32.601C19.268 32.4217 19.4755 32.2823 19.7057 32.1926C19.9761 32.0819 20.2614 32.0114 20.5523 31.9835C20.8819 31.9298 21.2146 31.8966 21.5483 31.8839C21.5483 31.6647 21.5483 31.5153 21.379 31.4357C21.1553 31.3435 20.9129 31.306 20.6718 31.3261C20.4935 31.3246 20.3158 31.3481 20.1439 31.3958C19.9387 31.4426 19.7386 31.5093 19.5463 31.595H19.4367L19.6061 30.6787C19.7355 30.6787 19.9447 30.6189 20.2136 30.5492C20.5008 30.5098 20.7903 30.4898 21.0802 30.4894C21.5863 30.4586 22.0907 30.5727 22.5344 30.8181C22.6659 30.9438 22.7605 31.103 22.8079 31.2786C22.8553 31.4542 22.8537 31.6394 22.8033 31.8141L22.3053 34.4138H21.0403L21.1798 34.0253ZM21.2794 33.4178L21.4388 32.6309L20.9208 32.6907C20.7814 32.7025 20.644 32.7326 20.5125 32.7803C20.4065 32.8065 20.3099 32.8617 20.2336 32.9397C20.1494 33.0181 20.0964 33.1242 20.0842 33.2385C20.06 33.3002 20.0556 33.3678 20.0717 33.4321C20.0878 33.4963 20.1234 33.554 20.1738 33.5971C20.2973 33.6686 20.44 33.6999 20.5822 33.6867C20.7041 33.6855 20.825 33.6653 20.9407 33.6269C21.0666 33.5807 21.1817 33.5096 21.2794 33.4178Z" fill="#DC211B"/>
<path fill-rule="evenodd" clip-rule="evenodd" d="M26.8876 34.4338H25.6326L26.0011 32.5513C26.0011 32.4019 26.0509 32.2326 26.0808 32.0732C26.0927 31.9706 26.0927 31.867 26.0808 31.7644C26.0689 31.7209 26.0475 31.6804 26.0182 31.646C25.989 31.6116 25.9525 31.584 25.9115 31.5652C25.8138 31.5242 25.7086 31.5039 25.6027 31.5055C25.5 31.4966 25.3967 31.4966 25.2939 31.5055C25.1589 31.5445 25.0311 31.605 24.9154 31.6848L24.3975 34.394H23.1425L23.8796 30.5792H25.1246L25.0449 30.9577C25.2602 30.8135 25.4867 30.687 25.7222 30.5792C25.9382 30.4951 26.1678 30.4512 26.3995 30.4497C26.5632 30.4349 26.7279 30.4608 26.8791 30.5251C27.0303 30.5894 27.1632 30.6901 27.2661 30.8182C27.4313 31.1444 27.4737 31.5191 27.3856 31.874L26.8876 34.4338Z" fill="#DC211B"/>
<path fill-rule="evenodd" clip-rule="evenodd" d="M29.6167 34.4636C29.3109 34.4708 29.0056 34.4339 28.7103 34.3541C28.4741 34.2845 28.2587 34.1579 28.0828 33.9856C27.8996 33.8158 27.7742 33.5928 27.7242 33.3481C27.6641 33.059 27.6641 32.7606 27.7242 32.4716C27.7843 32.1398 27.9059 31.8223 28.0828 31.5353C28.247 31.2916 28.4567 31.0819 28.7004 30.9178C28.9375 30.758 29.2003 30.6401 29.4773 30.5691C29.7597 30.4929 30.0513 30.456 30.3438 30.4596C30.5616 30.4571 30.779 30.4805 30.9913 30.5293C31.2094 30.593 31.4225 30.6729 31.6287 30.7684L31.4295 31.7644H31.2701L31.1108 31.6349C31.0453 31.5721 30.9716 31.5184 30.8916 31.4755C30.8022 31.4279 30.7089 31.388 30.6128 31.356C30.4946 31.3304 30.3723 31.3304 30.2542 31.356C30.1043 31.3499 29.9547 31.3741 29.8143 31.4272C29.674 31.4802 29.5458 31.561 29.4374 31.6648C29.2044 31.8995 29.0541 32.2037 29.0091 32.5313C28.962 32.6732 28.9473 32.8238 28.9663 32.9721C28.9852 33.1204 29.0373 33.2625 29.1187 33.3879C29.2037 33.488 29.3112 33.5663 29.4324 33.6166C29.5537 33.6668 29.6851 33.6874 29.8159 33.6768C29.9644 33.6821 30.1126 33.6619 30.2542 33.617L30.5829 33.5075C30.6632 33.4565 30.7397 33.4 30.812 33.3381C30.8751 33.2998 30.935 33.2565 30.9913 33.2086H31.1506L30.9614 34.2047L30.6924 34.2943C30.5915 34.3335 30.4884 34.3667 30.3837 34.3939C30.2542 34.3939 30.1446 34.4537 30.0251 34.4636C29.8892 34.4746 29.7526 34.4746 29.6167 34.4636Z" fill="#DC211B"/>
<path fill-rule="evenodd" clip-rule="evenodd" d="M35.7127 32.4716C35.6245 33.044 35.3305 33.5645 34.886 33.9358C34.4204 34.3053 33.8363 34.4929 33.2426 34.4637C32.98 34.4876 32.7153 34.4516 32.4686 34.3585C32.2219 34.2653 31.9995 34.1174 31.8182 33.9258C31.6668 33.7174 31.5641 33.4777 31.5175 33.2243C31.471 32.9709 31.4818 32.7103 31.5493 32.4616C31.649 31.8854 31.9446 31.3612 32.386 30.9775C32.8535 30.6124 33.4371 30.4285 34.0294 30.4596C34.2888 30.4361 34.5502 30.4704 34.7947 30.5599C35.0393 30.6495 35.261 30.7921 35.4438 30.9775C35.5946 31.192 35.6968 31.4369 35.7432 31.6949C35.7897 31.9529 35.7793 32.218 35.7127 32.4716ZM34.4279 32.4716C34.4454 32.2828 34.4454 32.0927 34.4279 31.9039C34.423 31.7814 34.3888 31.6618 34.3283 31.5553C34.3119 31.5082 34.2857 31.4651 34.2513 31.4291C34.217 31.393 34.1753 31.3647 34.1291 31.3461C34.024 31.3241 33.9154 31.3241 33.8103 31.3461C33.7084 31.326 33.6035 31.326 33.5015 31.3461C33.3918 31.38 33.2947 31.4459 33.2227 31.5353C33.1178 31.636 33.0362 31.7584 32.9836 31.8939C32.8939 32.0767 32.8302 32.2711 32.7944 32.4716C32.7722 32.6569 32.7722 32.8441 32.7944 33.0294C32.804 33.1467 32.8344 33.2613 32.884 33.368C32.9298 33.4557 33.0034 33.5257 33.0932 33.5672C33.2981 33.6473 33.5257 33.6473 33.7306 33.5672C33.8415 33.5286 33.9432 33.4676 34.0294 33.388C34.1171 33.2796 34.1939 33.1628 34.2585 33.0394C34.3378 32.8577 34.3947 32.667 34.4279 32.4716Z" fill="#DC211B"/>
<path fill-rule="evenodd" clip-rule="evenodd" d="M9.0589 42.9L11.8279 37.8601H13.2921L14.1188 42.8403H12.7642L12.6347 41.8442H10.9314L10.3936 42.8403L9.0589 42.9ZM12.5151 40.9079L12.2761 39.2147L11.4095 40.898L12.5151 40.9079Z" fill="#DC211B"/>
<path fill-rule="evenodd" clip-rule="evenodd" d="M19.1777 37.88L16.3789 42.9H14.9844L14.1179 37.8601H15.5024L16.0004 41.2765L17.8331 37.88H19.1777Z" fill="#DC211B"/>
<path fill-rule="evenodd" clip-rule="evenodd" d="M25.1043 37.88L22.3055 42.9H20.911L20.0445 37.8601H21.419L21.9369 41.2765L23.7497 37.88H25.1043Z" fill="#DC211B"/>
<path fill-rule="evenodd" clip-rule="evenodd" d="M24.5568 42.9L25.2739 39.1151H26.519L25.8118 42.9H24.5568ZM26.6684 38.5673H25.3437L25.5229 37.6609H26.8377L26.6684 38.5673Z" fill="#DC211B"/>
<path fill-rule="evenodd" clip-rule="evenodd" d="M26.5586 42.9L27.5746 37.6509H28.8395L27.8136 42.9H26.5586Z" fill="#DC211B"/>
<path fill-rule="evenodd" clip-rule="evenodd" d="M29.8857 42.9H28.6207L29.6267 37.6509L30.8917 37.6609L29.8857 42.9Z" fill="#DC211B"/>
<path fill-rule="evenodd" clip-rule="evenodd" d="M32.9631 42.5016C32.8775 42.5642 32.7877 42.6208 32.6942 42.6709C32.6035 42.7472 32.4985 42.8047 32.3854 42.8402L32.0468 42.9697C31.8879 42.9873 31.7275 42.9873 31.5687 42.9697C31.4193 42.9727 31.2711 42.9421 31.1352 42.8801C30.9992 42.8181 30.879 42.7263 30.7833 42.6115C30.6877 42.4967 30.6191 42.3619 30.5826 42.217C30.5461 42.0721 30.5427 41.9209 30.5726 41.7745C30.6034 41.5212 30.7073 41.2824 30.8714 41.0872C31.0349 40.9096 31.2356 40.7701 31.4591 40.6788C31.7397 40.5674 32.0349 40.497 32.3356 40.4697C32.6543 40.4697 33.003 40.3999 33.3316 40.38C33.3597 40.2998 33.3591 40.2123 33.3301 40.1325C33.3011 40.0526 33.2453 39.9852 33.1723 39.9418C32.9473 39.8503 32.7078 39.7997 32.4651 39.7924C32.2869 39.8125 32.1105 39.8458 31.9372 39.892C31.7244 39.9462 31.5148 40.0127 31.3097 40.0912H31.2101L31.3894 39.1748C31.5918 39.1211 31.7984 39.0844 32.0069 39.0652C32.2894 39.0113 32.576 38.9813 32.8635 38.9756C33.3688 38.9245 33.876 39.0513 34.2978 39.3342C34.4427 39.4501 34.5475 39.6086 34.5976 39.7873C34.6476 39.966 34.6403 40.1559 34.5767 40.3302L34.0886 42.9199H32.8336L32.9631 42.5016ZM33.0826 41.9039L33.2221 41.1171C33.0497 41.1297 32.8766 41.1297 32.7041 41.1171L32.3057 41.2266C32.1977 41.2475 32.0997 41.3035 32.0268 41.386C31.9433 41.4565 31.8898 41.5563 31.8774 41.6649C31.8774 41.8541 31.8774 41.9737 31.9671 42.0334C32.0902 42.1161 32.2376 42.1547 32.3854 42.143C32.5087 42.1374 32.63 42.1104 32.744 42.0633C32.864 42.0098 32.9776 41.943 33.0826 41.8641" fill="#DC211B"/>
<path fill-rule="evenodd" clip-rule="evenodd" d="M36.1205 42.9598C35.8456 42.9623 35.5715 42.9322 35.3037 42.8701C35.0943 42.8225 34.8906 42.7523 34.6961 42.661L34.8854 41.6649H34.995C35.0415 41.7277 35.0988 41.7817 35.1643 41.8243L35.4432 41.9737C35.5584 42.0304 35.6784 42.0771 35.8017 42.1132C35.9571 42.1338 36.1145 42.1338 36.2699 42.1132C36.4355 42.1216 36.6013 42.098 36.7579 42.0434C36.8175 42.0293 36.8717 41.9982 36.9141 41.9541C36.9565 41.9099 36.9853 41.8545 36.997 41.7944C37.0127 41.7636 37.0209 41.7294 37.0209 41.6948C37.0209 41.6602 37.0127 41.6261 36.997 41.5952C36.8857 41.5298 36.7646 41.4828 36.6384 41.4558L36.2998 41.396L35.9412 41.3064C35.6946 41.2274 35.4742 41.0828 35.3037 40.888C35.1826 40.6659 35.1505 40.4059 35.2141 40.1609C35.2421 39.9912 35.3104 39.8307 35.4133 39.6928C35.5367 39.5296 35.6927 39.394 35.8715 39.2944C36.0678 39.1682 36.283 39.0741 36.5089 39.0155C36.778 38.9405 37.0563 38.9036 37.3356 38.9059C37.5898 38.9106 37.8431 38.9373 38.0926 38.9856C38.2847 39.0376 38.4715 39.1076 38.6504 39.1948L38.4512 40.1908H38.3516C38.3118 40.1334 38.2565 40.0885 38.1922 40.0613L37.9432 39.9119C37.8418 39.8602 37.7349 39.8201 37.6245 39.7924C37.4954 39.7777 37.3651 39.7777 37.236 39.7924C37.0675 39.7837 36.8996 39.818 36.748 39.892C36.5986 39.9518 36.5488 40.0215 36.5289 40.1211C36.5092 40.1506 36.4986 40.1852 36.4986 40.2207C36.4986 40.2561 36.5092 40.2908 36.5289 40.3203C36.6375 40.3997 36.7641 40.451 36.8974 40.4697C37.018 40.5033 37.1413 40.5266 37.2659 40.5394L37.6245 40.639C37.8601 40.7008 38.0676 40.8414 38.2122 41.0374C38.3233 41.2415 38.3518 41.4803 38.2918 41.7048C38.2626 41.8959 38.1874 42.077 38.0727 42.2327C37.9439 42.3935 37.789 42.5315 37.6145 42.6411C37.4059 42.7545 37.1854 42.8446 36.9571 42.91C36.6762 42.9736 36.3886 43.0037 36.1006 42.9996" fill="#DC211B"/>
<path fill-rule="evenodd" clip-rule="evenodd" d="M24.039 19.4235C24.288 12.2919 16.2101 11.2958 16.2101 11.2958C22.4055 10.7679 24.0489 14.1345 24.0489 14.1345C27.9036 4.72198 35.573 5.00087 35.573 5.00087C26.5788 7.47104 24.039 19.4235 24.039 19.4235ZM18.4706 15.2401C16.4885 15.1106 15.2036 15.4593 15.0641 16.4553H15.0741C14.845 17.9593 17.3949 18.6665 17.9626 18.796C19.9248 19.2143 21.4487 19.1346 22.1061 18.4573C21.7575 19.3338 19.4367 20.1207 17.1259 19.5828C14.5761 19.0549 12.8629 17.5609 13.1418 16.1864C13.4207 14.8118 15.7116 14.1345 18.2415 14.6624C18.9874 14.8112 19.7063 15.0732 20.373 15.4393C19.7435 15.3346 19.1082 15.2681 18.4706 15.2401Z" fill="white"/>
</svg>
