<svg width="135" height="24" viewBox="0 0 135 24" fill="none" xmlns="http://www.w3.org/2000/svg">
<path d="M7.08404 8.84824e-10C7.39974 -1.73758e-05 7.65566 0.255907 7.65566 0.571606C7.65566 0.61207 7.65137 0.652419 7.64285 0.691975C6.8361 4.43724 6.22864 7.2808 5.82046 9.22266C5.72768 9.63768 6.0524 10.0296 6.46989 10.0296H9.43874C9.69388 10.0296 9.92582 9.8913 10.0418 9.66074C10.3433 9.01515 10.7608 8.41568 11.3175 7.86232C12.7323 6.36364 14.3791 5.60277 16.2346 5.60277C17.4871 5.60277 18.5308 5.94862 19.3426 6.64032C20.1776 7.35507 20.6647 8.3004 20.7575 9.43017C20.7807 9.77602 21.0822 10.0296 21.4301 10.0296H24.3294C24.7005 10.0296 24.9788 9.75296 25.002 9.38406V9.15349C25.002 6.94005 24.2598 5.09552 22.7754 3.66601C21.2909 2.2365 19.4122 1.52174 17.1392 1.52174C16.0278 1.50843 14.4119 1.95045 12.2916 2.8478C12.0009 2.9708 11.6655 2.83488 11.5425 2.54417C11.4964 2.43539 11.4852 2.31502 11.5104 2.19961L11.7939 0.89963C11.9084 0.374457 12.3733 8.84826e-10 12.9109 8.84824e-10H27.507C28.9218 8.84824e-10 29.9655 1.29117 29.6872 2.65152C28.3419 8.96904 26.9967 15.2866 25.6514 21.581C25.4427 22.5955 24.5381 23.3333 23.4712 23.3333H8.32701C7.69563 23.3333 7.1838 22.8215 7.1838 22.1901C7.1838 22.109 7.19243 22.0281 7.20955 21.9488L7.55036 20.3706C7.68363 19.7534 8.29196 19.3612 8.90911 19.4944C8.9917 19.5123 9.07205 19.5392 9.14871 19.5747C10.7405 20.3128 12.0587 20.6818 13.1034 20.6818C16.1186 20.6818 18.8555 19.5059 21.2909 17.1542C22.2419 16.2549 23.0073 15.2866 23.5871 14.2951C23.8423 13.857 23.5176 13.3037 23.0073 13.3037H20.108C19.8993 13.3037 19.6905 13.3959 19.5746 13.5804C19.389 13.834 19.1571 14.1107 18.9251 14.3643C17.4871 15.863 15.8403 16.6008 13.9384 16.6008C12.7091 16.6008 11.6886 16.2549 10.8768 15.5632C10.2969 15.056 9.90262 14.4565 9.67068 13.7648C9.5779 13.4881 9.32277 13.3037 9.04444 13.3037H5.49574C5.17102 13.3037 4.91589 13.5112 4.84631 13.834C4.41398 15.8643 3.76606 18.8804 2.90255 22.8823C2.84574 23.1455 2.61302 23.3333 2.3438 23.3333H2.22537C0.81053 23.3333 -0.233205 22.0422 0.0451241 20.6818C1.39038 14.3643 2.73564 8.04677 4.0809 1.75231C4.28965 0.737813 5.19422 8.84824e-10 6.26115 8.84824e-10H7.08404ZM85.716 9.01515C86.7579 9.01515 87.5867 9.33464 88.2024 9.95079C88.8654 10.5669 89.197 11.3428 89.197 12.2785C89.197 13.5564 88.6523 14.6974 87.563 15.7015C86.4974 16.6828 85.2897 17.1849 83.9637 17.1849C83.0638 17.1849 82.3771 16.9338 81.8798 16.4318C81.643 17.5043 81.4299 18.5997 81.1931 19.6951C81.151 19.9588 80.9779 20.1143 80.7071 20.1456L80.6011 20.1515H79.6065C79.275 20.1515 79.1092 20.0146 79.1092 19.7179C79.1092 19.6723 79.1092 19.6038 79.1329 19.5582C79.8433 16.2036 80.5774 12.849 81.3115 9.49438C81.3746 9.21039 81.5126 9.07065 81.7421 9.07516L81.8324 9.08361H82.8744C83.2296 9.08361 83.419 9.19771 83.419 9.44874C83.419 9.49438 83.419 9.56284 83.3953 9.6313C84.082 9.22054 84.8635 9.01515 85.716 9.01515ZM104.299 9.01515C105.341 9.01515 106.169 9.33464 106.785 9.95079C107.448 10.5669 107.78 11.3428 107.78 12.2785C107.78 13.5564 107.235 14.6974 106.146 15.7015C105.08 16.6828 103.872 17.1849 102.546 17.1849C101.647 17.1849 100.96 16.9338 100.463 16.4318C100.226 17.5043 100.013 18.5997 99.7758 19.6951C99.7337 19.9588 99.5606 20.1143 99.2898 20.1456L99.1838 20.1515H98.1892C97.8945 20.1515 97.7308 20.0433 97.6981 19.8109L97.6919 19.7179L97.7156 19.5582C98.4497 16.2036 99.1601 12.849 99.8942 9.49438C99.9573 9.21039 100.095 9.07065 100.325 9.07516L100.415 9.08361H101.457C101.812 9.08361 102.002 9.19771 102.002 9.44874C102.002 9.49438 102.002 9.56284 101.978 9.6313C102.665 9.22054 103.446 9.01515 104.299 9.01515ZM124.472 9.01515C125.334 9.01515 126.014 9.25216 126.513 9.72617L126.536 9.51287C126.596 9.21792 126.728 9.07279 126.948 9.07748L127.035 9.08625H127.987C128.327 9.08625 128.486 9.22846 128.486 9.48917C128.486 9.53657 128.463 9.60767 128.418 9.70247C127.942 12.1199 127.443 14.5137 126.967 16.9075C126.926 17.1814 126.761 17.3429 126.501 17.3754L126.4 17.3815H125.538C125.198 17.3815 125.016 17.2393 125.016 16.9312C125.016 16.8838 125.016 16.8364 125.039 16.7653C125.062 16.7416 125.084 16.7179 125.107 16.6942C124.449 17.2393 123.678 17.5 122.817 17.5C121.841 17.5 121.048 17.1682 120.413 16.5283C119.778 15.8884 119.46 15.0825 119.46 14.0871C119.46 12.7836 119.982 11.5985 121.025 10.5557C122.046 9.53657 123.179 9.01515 124.472 9.01515ZM72.5533 9.01515C73.5229 9.01515 74.3308 9.32326 74.9541 9.96318C75.6004 10.6031 75.9236 11.4089 75.9236 12.3807C75.9236 13.7079 75.3927 14.9166 74.3308 15.9595C73.3151 16.9786 72.1378 17.5 70.8451 17.5C69.8525 17.5 69.0445 17.1919 68.3982 16.552C67.7518 15.9121 67.4287 15.0825 67.4287 14.0871C67.4287 12.7599 67.9365 11.5748 68.9984 10.532C70.0372 9.51287 71.2145 9.01515 72.5533 9.01515ZM118.878 6.36374L118.967 6.37228H120.035C120.36 6.37228 120.522 6.48747 120.522 6.7409C120.522 6.78697 120.499 6.87913 120.499 6.99432C119.803 10.3349 119.083 13.6986 118.387 17.0392C118.325 17.3055 118.171 17.4625 117.91 17.4941L117.806 17.5H116.808C116.46 17.5 116.275 17.3618 116.275 17.0623C116.275 17.0162 116.298 16.9471 116.298 16.901C117.017 13.5143 117.737 10.1506 118.456 6.78697C118.511 6.53611 118.621 6.39674 118.798 6.36886L118.878 6.36374ZM134.358 9.01515C134.691 9.01515 134.857 9.13499 134.857 9.39865C134.857 9.44658 134.857 9.48387 134.85 9.5247L134.834 9.5904L134.62 10.645C134.577 10.922 134.404 11.0853 134.132 11.1182L134.025 11.1244H133.645C132.48 11.1483 131.767 11.6517 131.529 12.6823C131.22 14.1204 130.935 15.5825 130.626 17.0206C130.583 17.2976 130.41 17.4609 130.138 17.4938L130.031 17.5H129.033C128.676 17.5 128.486 17.3562 128.486 17.0446C128.486 16.9967 128.51 16.9487 128.51 16.8768C129.009 14.432 129.532 12.0112 130.055 9.56643C130.119 9.26815 130.257 9.12138 130.487 9.12612L130.578 9.13499H131.6C131.933 9.13499 132.123 9.25484 132.147 9.49452C132.471 9.21126 132.992 9.06665 133.727 9.0247L133.954 9.01515H134.358ZM46.4247 9.01515C47.2865 9.01515 47.9669 9.25216 48.4658 9.72617C48.4658 9.65507 48.4884 9.58397 48.4884 9.51287C48.5489 9.21792 48.6811 9.07279 48.9008 9.07748L48.9874 9.08625H49.9398C50.28 9.08625 50.4388 9.20476 50.4388 9.46546C50.4388 9.51287 50.4388 9.58397 50.3707 9.70247C49.8945 12.1199 49.3956 14.5137 48.9193 16.9075C48.879 17.1814 48.7133 17.3429 48.4539 17.3754L48.3524 17.3815H47.4906C47.1504 17.3815 46.969 17.2393 46.969 16.9312C46.969 16.8838 46.969 16.8364 46.9917 16.7653C47.0144 16.7416 47.037 16.7179 47.0597 16.6942C46.4021 17.2393 45.631 17.5 44.7692 17.5C43.7941 17.5 43.0003 17.1682 42.3654 16.5283C41.7304 15.8884 41.4129 15.0825 41.4129 14.0871C41.4129 12.7836 41.9345 11.5985 42.9777 10.5557C43.9982 9.53657 45.1321 9.01515 46.4247 9.01515ZM115.058 9.54556L115.15 9.55392H116.278C116.638 9.55392 116.806 9.66679 116.806 9.9151C116.806 9.93768 116.782 10.0054 116.782 10.1408C116.278 12.3983 115.75 14.6782 115.246 16.9356C115.203 17.1965 115.028 17.3503 114.753 17.3813L114.646 17.3871H113.71C113.374 17.3871 113.182 17.2517 113.182 16.9808C112.75 17.3194 112.15 17.5 111.406 17.5C110.638 17.5 109.99 17.342 109.462 17.0034C108.695 16.5067 108.311 15.8069 108.311 14.8588C108.311 14.5879 108.335 14.3396 108.407 14.0687L109.342 9.96025C109.406 9.67933 109.546 9.5411 109.779 9.54556L109.87 9.55392H110.974C111.334 9.55392 111.502 9.66679 111.502 9.9151C111.502 9.96025 111.478 10.0054 111.478 10.0731L110.566 14.0236C110.542 14.0913 110.542 14.1816 110.542 14.2945C110.542 14.7008 110.686 14.9943 110.95 15.22C111.19 15.4232 111.478 15.5135 111.814 15.5135C112.294 15.5135 112.726 15.378 113.086 15.1071C113.398 14.8588 113.614 14.5202 113.71 14.0462C114.022 12.6691 114.334 11.3147 114.646 9.96025C114.683 9.71445 114.793 9.57789 114.976 9.55058L115.058 9.54556ZM63.9397 9.01515C65.0319 9.01515 65.9193 9.41919 66.6019 10.2035C66.8067 10.4412 66.8977 10.6075 66.8977 10.7264C66.8977 10.8928 66.8067 11.0591 66.6247 11.178C66.3289 11.3681 66.0558 11.5582 65.76 11.7484C65.6462 11.8197 65.5325 11.8672 65.4415 11.8672C65.3049 11.8672 65.1456 11.7959 64.9864 11.6295C64.6678 11.273 64.2355 11.1067 63.6666 11.1067C62.9385 11.1067 62.3014 11.4156 61.7552 12.0098C61.3002 12.5089 61.0726 13.0793 61.0726 13.721C61.0726 14.2677 61.2547 14.6955 61.596 15.0045C61.8918 15.2659 62.2786 15.4085 62.7109 15.4085C63.4163 15.4085 64.0079 15.1233 64.5313 14.5053C64.6678 14.339 64.8043 14.2677 64.9636 14.2677C65.0319 14.2677 65.1229 14.2914 65.2367 14.339C65.487 14.4578 65.7373 14.6004 65.9876 14.7193C66.1923 14.8381 66.3061 14.9569 66.3061 15.1233C66.3061 15.3372 66.0786 15.6224 65.669 16.0502C64.6678 17.0247 63.5528 17.5 62.3241 17.5C61.3229 17.5 60.5265 17.191 59.8894 16.5493C59.2523 15.9076 58.9337 15.0758 58.9337 14.0775C58.9337 12.7704 59.4343 11.582 60.481 10.5362C61.505 9.51426 62.6427 9.01515 63.9397 9.01515ZM94.875 9.01515C95.8444 9.01515 96.6522 9.32326 97.2754 9.93948C97.9216 10.5794 98.2448 11.3852 98.2217 12.3807C98.2217 13.7079 97.6908 14.9166 96.6291 15.9595C95.6135 16.9786 94.4364 17.5 93.1439 17.5C92.1514 17.5 91.3436 17.1919 90.6973 16.552C90.051 15.9121 89.7279 15.0825 89.7279 14.0871C89.7279 12.7599 90.2588 11.5748 91.3205 10.532C92.3591 9.51287 93.5363 9.01515 94.875 9.01515ZM55.3305 9.01515C56.0983 9.01515 56.7701 9.17379 57.274 9.51373C58.0418 9.98964 58.4257 10.6922 58.4017 11.576C58.4017 11.8253 58.3777 12.0973 58.3057 12.3692C58.0178 13.7516 57.7059 15.134 57.394 16.5164C57.33 16.7783 57.1523 16.9328 56.8776 16.9639L56.7701 16.9697H55.7384C55.4185 16.9697 55.2312 16.8623 55.1936 16.6315L55.1865 16.5391L55.2105 16.4031C55.5224 15.066 55.8104 13.7516 56.1223 12.4372C56.1463 12.3465 56.1463 12.2559 56.1463 12.1426C56.1463 11.848 56.0743 11.5987 55.8823 11.3947C55.6424 11.1228 55.3065 10.9868 54.8746 10.9868C54.4187 10.9868 54.0108 11.1228 53.6749 11.3721C53.315 11.644 53.099 12.0293 52.9791 12.5278C52.6671 13.8649 52.3792 15.1794 52.0673 16.5164C52.0246 16.7783 51.8493 16.9328 51.5749 16.9639L51.4674 16.9697H50.4597C50.0998 16.9697 49.9078 16.8337 49.9078 16.5391C49.9078 16.4938 49.9318 16.4485 49.9318 16.3805C50.4357 14.0689 50.9636 11.78 51.4914 9.4684C51.5341 9.18638 51.6905 9.04761 51.9269 9.05208L52.0193 9.06048H53.0271C53.363 9.06048 53.5309 9.17379 53.5549 9.40041C54.0108 9.15113 54.6107 9.01515 55.3305 9.01515ZM33.8629 5.83344L33.9492 5.84188H35.0124C35.3291 5.84188 35.4874 5.9559 35.4874 6.20673C35.4874 6.25234 35.4874 6.32074 35.4648 6.41196C35.2386 7.43809 35.0124 8.44141 34.7862 9.44474C35.4196 9.01149 36.1661 8.80626 37.0031 8.80626C37.9758 8.80626 38.7901 9.1027 39.3783 9.74118C40.0343 10.3569 40.351 11.1322 40.351 12.0671C40.351 13.344 39.8307 14.4842 38.7901 15.4875C37.7496 16.468 36.5959 16.9697 35.3291 16.9697C34.5476 16.9697 33.9157 16.7624 33.4334 16.3478L33.2932 16.2172V16.3768C33.253 16.6606 33.0876 16.8182 32.829 16.8498L32.7276 16.8557H31.8228C31.4835 16.8557 31.3251 16.7189 31.3251 16.4224C31.3251 16.3768 31.3477 16.3312 31.3477 16.2628C32.0716 12.9108 32.7729 9.58156 33.4741 6.25234C33.5093 6.00404 33.6129 5.8661 33.785 5.83851L33.8629 5.83344ZM124.087 11.1482C123.384 11.1482 122.771 11.4326 122.227 12.0251C121.751 12.5229 121.524 13.1154 121.524 13.7553C121.524 14.3004 121.705 14.727 122.046 15.0351C122.34 15.2958 122.703 15.438 123.157 15.438C123.86 15.438 124.495 15.1299 125.039 14.5374C125.515 14.016 125.765 13.4235 125.742 12.7836C125.742 12.2621 125.561 11.8592 125.22 11.5511C124.926 11.2667 124.54 11.1482 124.087 11.1482ZM46.0619 11.1245C45.3589 11.1245 44.7466 11.4089 44.2023 12.0014C43.726 12.4992 43.4993 13.0917 43.4993 13.7316C43.4993 14.2767 43.6807 14.7033 44.0209 15.0114C44.3157 15.2721 44.6785 15.4143 45.1321 15.4143C45.8351 15.4143 46.4701 15.1062 47.0144 14.5137C47.4906 13.9686 47.7174 13.3998 47.7174 12.7599C47.7174 12.2384 47.536 11.8355 47.1958 11.5274C46.901 11.243 46.5155 11.1245 46.0619 11.1245ZM94.5057 11.1008C93.7902 11.1008 93.1439 11.4089 92.613 12.0014C92.1514 12.4992 91.9206 13.068 91.9206 13.7079C91.9206 14.253 92.0822 14.6796 92.4284 14.9877C92.7284 15.2484 93.0977 15.3906 93.5363 15.3906C94.2518 15.3906 94.875 15.0825 95.4289 14.49C95.9136 13.9449 96.1444 13.3524 96.1675 12.7362C96.1675 12.2147 95.9828 11.8118 95.6366 11.5037C95.3366 11.243 94.9673 11.1008 94.5057 11.1008ZM72.184 11.1008C71.4684 11.1008 70.8451 11.4089 70.2911 12.0014C69.8294 12.4992 69.5986 13.068 69.5986 13.7079C69.5986 14.253 69.7602 14.6796 70.1064 14.9877C70.4065 15.2484 70.7759 15.3906 71.2145 15.3906C71.9301 15.3906 72.5533 15.0825 73.1074 14.49C73.5921 13.9686 73.846 13.3761 73.846 12.7362C73.846 12.2147 73.6614 11.8118 73.3151 11.5037C73.015 11.243 72.6457 11.1008 72.184 11.1008ZM85.3608 11.0462C84.6267 11.0462 83.9873 11.32 83.419 11.8905C82.9217 12.3698 82.6849 12.9403 82.6849 13.5564C82.6849 14.0813 82.8744 14.4921 83.2296 14.7887C83.5374 15.0397 83.9163 15.1767 84.3899 15.1767C85.124 15.1767 85.787 14.88 86.3553 14.3095C86.8526 13.8074 87.0894 13.2369 87.0894 12.6436C87.0894 12.1187 86.9 11.7308 86.5448 11.4341C86.237 11.1603 85.8344 11.0462 85.3608 11.0462ZM103.92 11.0462C103.186 11.0462 102.546 11.32 101.978 11.8905C101.481 12.3698 101.244 12.9403 101.244 13.5564C101.244 14.0813 101.433 14.4921 101.789 14.7887C102.12 15.0397 102.499 15.1767 102.973 15.1767C103.707 15.1767 104.37 14.88 104.938 14.3095C105.435 13.8074 105.672 13.2369 105.648 12.6436C105.648 12.1187 105.459 11.7308 105.104 11.4341C104.796 11.1603 104.393 11.0462 103.92 11.0462ZM36.6185 10.8585C35.9172 10.8585 35.2838 11.1322 34.7409 11.7022C34.2885 12.1811 34.0397 12.7512 34.0397 13.3668C34.0397 13.8685 34.2206 14.279 34.56 14.5754C34.854 14.8262 35.2386 14.963 35.691 14.963C36.3923 14.963 37.0257 14.6666 37.5912 14.0965C38.0889 13.5949 38.3151 13.0248 38.2925 12.4547C38.2925 11.9531 38.1341 11.5426 37.7722 11.2462C37.4781 10.9953 37.0936 10.8585 36.6185 10.8585Z" fill="#009A36"/>
</svg>
