<svg width="48" height="48" viewBox="0 0 48 48" fill="none" xmlns="http://www.w3.org/2000/svg">
<path fill-rule="evenodd" clip-rule="evenodd" d="M37.0627 35.9885H36.8737C36.4617 36.0005 36.1717 36.0775 35.9907 36.2185C35.9857 36.1095 35.8977 36.0455 35.7197 36.0455H35.2277C35.0907 36.0295 35.0107 36.1015 34.9787 36.2625C34.7247 37.4475 34.4697 38.6005 34.2287 39.7695C34.2207 39.8095 34.2087 39.8345 34.2087 39.8345C34.2087 39.9955 34.3047 40.0755 34.4787 40.0755H34.9657C35.1237 40.0755 35.2277 39.9955 35.2607 39.8425C35.4147 39.1445 35.5507 38.4475 35.6957 37.7585C35.8167 37.2625 36.1477 37.0245 36.7237 37.0045H36.9167C37.0747 37.0045 37.1707 36.9395 37.2037 36.7825C37.2357 36.6175 37.2717 36.4435 37.3077 36.2745C37.3167 36.2425 37.3167 36.2105 37.3207 36.1985C37.3207 36.0525 37.2277 35.9885 37.0627 35.9885Z" fill="#168A35"/>
<path fill-rule="evenodd" clip-rule="evenodd" d="M32.7453 38.6936C32.4673 38.9746 32.1443 39.1256 31.7903 39.1256C31.5603 39.1256 31.3753 39.0596 31.2223 38.9356C31.0483 38.7776 30.9723 38.5686 30.9723 38.3186C30.9723 38.0006 31.0843 37.7176 31.3183 37.4606C31.5843 37.1736 31.9073 37.0446 32.2663 37.0446C32.4953 37.0446 32.6973 37.1006 32.8463 37.2176C33.0193 37.3826 33.1083 37.5776 33.1083 37.8266C33.1083 38.1366 32.9913 38.4356 32.7453 38.6936ZM34.4863 36.2426C34.4863 36.1266 34.3973 36.0526 34.2283 36.0526H33.7533C33.6203 36.0296 33.5353 36.1016 33.5033 36.2626C33.4913 36.2956 33.4913 36.3356 33.4913 36.3356C33.2373 36.1336 32.8983 36.0296 32.4513 36.0296C31.7943 36.0296 31.2223 36.2746 30.7103 36.7706C30.1823 37.2786 29.9153 37.8506 29.9153 38.4796C29.9153 38.9556 30.0813 39.3586 30.3993 39.6696C30.7223 39.9836 31.1253 40.1396 31.6163 40.1396C32.0603 40.1396 32.4473 40.0106 32.7853 39.7376C32.7773 39.7536 32.7623 39.7616 32.7623 39.7616C32.7453 39.8096 32.7413 39.8416 32.7413 39.8416C32.7413 39.9956 32.8263 40.0756 32.9993 40.0756H33.4463C33.6083 40.0756 33.7043 39.9956 33.7363 39.8416C33.9783 38.6696 34.2283 37.5116 34.4783 36.3516C34.4783 36.2956 34.4863 36.2626 34.4863 36.2626" fill="#168A35"/>
<path fill-rule="evenodd" clip-rule="evenodd" d="M30.2541 34.7033C30.2541 34.5783 30.1611 34.5163 30.0131 34.5163H29.4771C29.3441 34.4933 29.2461 34.5693 29.2271 34.7263C28.8671 36.4113 28.5051 38.0933 28.1471 39.7693V39.8423C28.1471 39.9953 28.2311 40.0753 28.4001 40.0753H28.8921C29.0621 40.0753 29.1501 39.9953 29.1821 39.8423C29.5411 38.1613 29.8921 36.4883 30.2381 34.8323C30.2501 34.7793 30.2541 34.7353 30.2541 34.7353" fill="#168A35"/>
<path fill-rule="evenodd" clip-rule="evenodd" d="M28.4123 36.2629C28.4123 36.1459 28.3313 36.0849 28.1503 36.0849H27.6183C27.4813 36.0619 27.3963 36.1339 27.3763 36.2949C27.2243 36.9849 27.0703 37.6819 26.9173 38.3699C26.8683 38.6169 26.7643 38.7939 26.6273 38.9109C26.4413 39.0519 26.2393 39.1249 26.0063 39.1249C25.8453 39.1249 25.7123 39.0759 25.5953 38.9749C25.4813 38.8699 25.4093 38.7129 25.4093 38.4999C25.4093 38.4479 25.4093 38.4029 25.4253 38.3669C25.5663 37.6859 25.7123 37.0169 25.8523 36.3429C25.8603 36.3109 25.8603 36.2949 25.8603 36.2629C25.8603 36.1459 25.7803 36.0849 25.6023 36.0849H25.0873C24.9373 36.0619 24.8533 36.1339 24.8253 36.2949C24.6723 36.9919 24.5223 37.6859 24.3693 38.3909C24.3503 38.5119 24.3373 38.6579 24.3373 38.7779C24.3373 39.2619 24.5223 39.6199 24.8813 39.8779C25.1353 40.0519 25.4413 40.1399 25.8163 40.1399C26.1673 40.1399 26.4613 40.0429 26.6633 39.8669C26.6633 40.0109 26.7643 40.0759 26.9173 40.0759H27.3683C27.5293 40.0759 27.6343 39.9949 27.6623 39.8419C27.9003 38.6769 28.1503 37.5289 28.4003 36.3789C28.4003 36.3269 28.4123 36.2949 28.4123 36.2629Z" fill="#168A35"/>
<path fill-rule="evenodd" clip-rule="evenodd" d="M22.6525 38.6936C22.3665 38.9746 22.0485 39.1256 21.7015 39.1256C21.4675 39.1256 21.2735 39.0596 21.1295 38.9356C20.9475 38.7776 20.8635 38.5846 20.8635 38.3186C20.8635 38.0006 20.9755 37.7176 21.2255 37.4606C21.4955 37.1736 21.8135 37.0446 22.1695 37.0446C22.4025 37.0446 22.5915 37.1006 22.7415 37.2176C22.9235 37.3826 23.0065 37.5776 23.0065 37.8426C23.0065 38.1486 22.8945 38.4356 22.6525 38.6936ZM22.3385 36.0296C21.9265 36.0296 21.5515 36.1266 21.2255 36.3356C21.2255 36.2956 21.2295 36.2626 21.2295 36.2626C21.2295 36.1266 21.1365 36.0526 20.9715 36.0526H20.4675C20.3315 36.0296 20.2425 36.1016 20.2145 36.2626C19.8635 37.9596 19.5075 39.6406 19.1585 41.3576V41.4256C19.1585 41.5716 19.2265 41.6436 19.3835 41.6436H19.8755C20.0245 41.6436 20.1325 41.5716 20.1575 41.4106C20.2745 40.8536 20.3865 40.3016 20.5005 39.7536C20.7375 40.0106 21.0725 40.1396 21.5075 40.1396C22.1525 40.1396 22.7415 39.8786 23.2565 39.3786C23.7975 38.8706 24.0635 38.3016 24.0635 37.6536C24.0635 37.2016 23.8935 36.8026 23.5635 36.4846C23.2565 36.1776 22.8385 36.0296 22.3385 36.0296Z" fill="#168A35"/>
<path fill-rule="evenodd" clip-rule="evenodd" d="M18.049 38.677C17.779 38.975 17.453 39.133 17.102 39.133C16.88 39.133 16.703 39.06 16.55 38.927C16.372 38.778 16.288 38.569 16.288 38.319C16.288 38 16.409 37.718 16.643 37.472C16.909 37.174 17.227 37.044 17.573 37.044C17.808 37.044 18.001 37.101 18.147 37.218C18.323 37.383 18.412 37.569 18.412 37.811C18.412 38.137 18.299 38.436 18.049 38.677ZM18.977 36.477C18.658 36.178 18.259 36.03 17.779 36.03C17.102 36.03 16.514 36.263 16.01 36.763C15.474 37.263 15.216 37.843 15.216 38.48C15.216 38.967 15.373 39.359 15.703 39.669C16.01 39.984 16.425 40.14 16.921 40.14C17.566 40.14 18.147 39.878 18.658 39.378C19.195 38.87 19.452 38.302 19.452 37.654C19.452 37.174 19.291 36.795 18.977 36.477Z" fill="#168A35"/>
<path fill-rule="evenodd" clip-rule="evenodd" d="M13.5109 38.6936C13.2209 38.9746 12.9139 39.1256 12.5429 39.1256C12.3099 39.1256 12.1319 39.0596 11.9789 38.9356C11.8099 38.7776 11.7129 38.5846 11.7129 38.3186C11.7129 38.0006 11.8379 37.7176 12.0759 37.4606C12.3499 37.1736 12.6639 37.0446 13.0189 37.0446C13.2529 37.0446 13.4379 37.1006 13.6039 37.2176C13.7729 37.3826 13.8689 37.5776 13.8689 37.8426C13.8689 38.1486 13.7439 38.4356 13.5109 38.6936ZM13.1969 36.0296C12.7779 36.0296 12.4069 36.1266 12.0759 36.3356C12.0839 36.2956 12.0839 36.2626 12.0839 36.2626C12.0839 36.1266 11.9949 36.0526 11.8219 36.0526H11.3189C11.1889 36.0296 11.0969 36.1016 11.0689 36.2626C10.7219 37.9596 10.3589 39.6406 10.0129 41.3576L9.99989 41.3936C9.99989 41.5716 10.0689 41.6436 10.2299 41.6436H10.7379C10.8949 41.6436 10.9799 41.5716 11.0239 41.4106C11.1289 40.8536 11.2379 40.3016 11.3549 39.7536C11.5839 40.0106 11.9309 40.1396 12.3539 40.1396C13.0109 40.1396 13.5959 39.8786 14.1119 39.3786C14.6359 38.8706 14.9129 38.3016 14.9129 37.6536C14.9129 37.2016 14.7399 36.8026 14.4139 36.4846C14.1079 36.1776 13.6969 36.0296 13.1969 36.0296Z" fill="#168A35"/>
<path fill-rule="evenodd" clip-rule="evenodd" d="M13.7843 29.3459C14.0673 29.0599 14.3893 28.9099 14.7483 28.9099C14.9853 28.9099 15.1803 28.9759 15.3283 29.0999C15.5173 29.2569 15.6103 29.4509 15.6103 29.7009C15.6103 30.0189 15.4893 30.3099 15.2363 30.5599C14.9503 30.8499 14.6313 30.9939 14.2723 30.9939C14.0353 30.9939 13.8463 30.9349 13.6963 30.8009C13.5113 30.6519 13.4223 30.4499 13.4223 30.1769C13.4223 29.8619 13.5353 29.5999 13.7843 29.3459ZM12.2983 31.9419H12.7613C12.9303 31.9499 13.0183 31.8689 13.0513 31.6959V31.6269C13.3093 31.8769 13.6603 32.0099 14.0993 32.0099C14.7403 32.0099 15.3283 31.7609 15.8563 31.2519C16.3813 30.7409 16.6463 30.1769 16.6463 29.5319C16.6463 29.0679 16.4853 28.6689 16.1593 28.3669C15.8413 28.0519 15.4303 27.8949 14.9303 27.8949C14.5023 27.8949 14.1193 28.0079 13.8013 28.2179C13.9183 27.7089 14.0353 27.1939 14.1473 26.6939C14.1553 26.6409 14.1633 26.6019 14.1633 26.6019C14.1633 26.4599 14.0833 26.3879 13.9183 26.3879H13.3783C13.2403 26.3669 13.1643 26.4399 13.1243 26.6019C12.7733 28.2939 12.4223 29.9669 12.0593 31.6439C12.0443 31.6759 12.0443 31.6959 12.0443 31.6959C12.0443 31.8769 12.1323 31.9419 12.2983 31.9419Z" fill="#168A35"/>
<path fill-rule="evenodd" clip-rule="evenodd" d="M18.3234 29.3459C18.5974 29.0599 18.9204 28.9099 19.2784 28.9099C19.5084 28.9099 19.7024 28.9759 19.8634 29.0999C20.0204 29.2569 20.1134 29.4509 20.1134 29.7009C20.1134 30.0109 20.0004 30.3099 19.7424 30.5599C19.4804 30.8499 19.1584 30.9939 18.7834 30.9939C18.5734 30.9939 18.3844 30.9349 18.2194 30.8009C18.0534 30.6599 17.9654 30.4499 17.9654 30.1769C17.9654 29.8619 18.0904 29.5999 18.3234 29.3459ZM18.6304 32.0099C19.0644 32.0099 19.4524 31.8769 19.7904 31.6119L19.7664 31.6439C19.7424 31.6839 19.7424 31.6959 19.7424 31.6959C19.7424 31.8769 19.8394 31.9419 20.0114 31.9419H20.4524C20.6174 31.9499 20.7104 31.8769 20.7464 31.7159C20.9914 30.5429 21.2374 29.3869 21.4834 28.2179C21.4954 28.1689 21.4954 28.1369 21.4954 28.1369C21.4954 27.9839 21.4194 27.9269 21.2424 27.9269H20.7614C20.6254 27.9109 20.5404 27.9759 20.5084 28.1369C20.5004 28.1689 20.5004 28.2179 20.4924 28.2339C20.2504 28.0079 19.8954 27.8949 19.4604 27.8949C18.8024 27.8949 18.2194 28.1369 17.7154 28.6369C17.1864 29.1449 16.9284 29.7249 16.9284 30.3539C16.9284 30.8289 17.0904 31.2249 17.4044 31.5339C17.7194 31.8659 18.1304 32.0099 18.6304 32.0099Z" fill="#168A35"/>
<path fill-rule="evenodd" clip-rule="evenodd" d="M21.2257 31.7287C21.2257 31.8767 21.3137 31.9417 21.4877 31.9417H21.9667C22.1367 31.9507 22.2337 31.8767 22.2657 31.7157C22.4177 31.0427 22.5637 30.3537 22.7017 29.6847C22.7567 29.4347 22.8667 29.2377 23.0387 29.0997C23.2007 28.9757 23.3897 28.9107 23.6197 28.9107C23.8297 28.9107 23.9907 28.9757 24.1037 29.1127C24.1847 29.2337 24.2327 29.3547 24.2327 29.4997C24.2327 29.5637 24.2327 29.5997 24.2167 29.6447C24.0677 30.3097 23.9217 30.9827 23.7817 31.6437C23.7727 31.6757 23.7727 31.6917 23.7727 31.6917C23.7727 31.8767 23.8577 31.9417 24.0307 31.9417H24.5227C24.6877 31.9507 24.7807 31.8767 24.8177 31.7157C24.9657 31.0147 25.1117 30.3097 25.2557 29.6207C25.2877 29.4827 25.3007 29.3457 25.3007 29.2167C25.3007 28.7567 25.1267 28.3907 24.7607 28.1447C24.5147 27.9837 24.1967 27.8947 23.8217 27.8947C23.4747 27.8947 23.1847 27.9587 22.9667 28.1007C22.9587 27.9837 22.8777 27.9267 22.7207 27.9267H22.2337C22.0957 27.9117 22.0237 27.9757 21.9797 28.1367C21.7337 29.3097 21.4837 30.4747 21.2297 31.6437C21.2257 31.6757 21.2257 31.6957 21.2257 31.6957" fill="#168A35"/>
<path fill-rule="evenodd" clip-rule="evenodd" d="M27.255 32.01C27.884 32.01 28.448 31.777 28.944 31.301C29.15 31.095 29.263 30.95 29.263 30.858C29.263 30.777 29.21 30.716 29.102 30.668C28.988 30.615 28.859 30.543 28.734 30.483C28.687 30.467 28.634 30.435 28.602 30.435C28.505 30.435 28.441 30.475 28.376 30.551C28.109 30.85 27.804 30.994 27.452 30.994C27.224 30.994 27.038 30.935 26.885 30.801C26.711 30.652 26.627 30.435 26.627 30.177C26.627 29.862 26.748 29.6 26.978 29.346C27.247 29.06 27.57 28.91 27.941 28.91C28.215 28.91 28.441 28.999 28.613 29.16C28.687 29.238 28.755 29.27 28.835 29.27C28.88 29.27 28.932 29.266 29 29.225C29.15 29.133 29.287 29.044 29.424 28.944C29.528 28.878 29.568 28.822 29.568 28.725C29.568 28.669 29.528 28.592 29.424 28.467C29.089 28.092 28.642 27.895 28.086 27.895C27.433 27.895 26.853 28.137 26.336 28.633C25.817 29.141 25.555 29.717 25.555 30.354C25.555 30.85 25.699 31.24 26.038 31.539C26.353 31.865 26.764 32.01 27.255 32.01Z" fill="#168A35"/>
<path fill-rule="evenodd" clip-rule="evenodd" d="M31.2707 29.3459C31.5407 29.0599 31.8507 28.9099 32.2127 28.9099C32.4397 28.9099 32.6317 28.9759 32.7777 29.0999C32.9557 29.2569 33.0427 29.4429 33.0427 29.7009C33.0427 30.0069 32.9217 30.3099 32.6767 30.5599C32.4027 30.8499 32.0927 30.9939 31.7377 30.9939C31.5237 30.9939 31.3347 30.9349 31.1817 30.8009C31.0117 30.6519 30.9237 30.4349 30.9237 30.1769C30.9237 29.8619 31.0407 29.5999 31.2707 29.3459ZM31.5517 32.0099C32.1887 32.0099 32.7777 31.7609 33.2897 31.2519C33.8217 30.7409 34.0837 30.1679 34.0837 29.5319C34.0837 29.0599 33.9307 28.6689 33.5997 28.3589C33.2857 28.0519 32.8897 27.8949 32.4027 27.8949C31.7377 27.8949 31.1497 28.1369 30.6287 28.6329C30.1097 29.1409 29.8437 29.7169 29.8437 30.3539C29.8437 30.8499 30.0127 31.2409 30.3267 31.5389C30.6417 31.8659 31.0517 32.0099 31.5517 32.0099Z" fill="#168A35"/>
<path fill-rule="evenodd" clip-rule="evenodd" d="M22.0714 7.00009H31.7254C32.6204 7.00009 33.2854 7.81009 33.0924 8.68809C32.2454 12.6831 31.3984 16.6651 30.5604 20.6441C30.4154 21.2841 29.8434 21.7441 29.1864 21.7441H18.8804C18.9044 21.6471 18.9274 21.5431 18.9444 21.4341C19.0964 20.7401 19.2504 20.0431 19.3914 19.3421C20.3634 20.0831 21.4594 20.4661 22.6844 20.4661C24.5954 20.4661 26.3034 19.7121 27.8364 18.2171C28.4324 17.6481 28.9164 17.0481 29.2874 16.4241C29.4484 16.1421 29.2384 15.7991 28.9314 15.7991H27.1104C26.9654 15.7991 26.8444 15.8591 26.7634 15.9681C26.6504 16.1331 26.5024 16.2991 26.3524 16.4471C25.4664 17.3991 24.4224 17.8741 23.2244 17.8741C22.4554 17.8741 21.8184 17.6481 21.3134 17.2181C20.9474 16.8911 20.7054 16.5121 20.5564 16.0851C20.5004 15.9071 20.3314 15.7991 20.1574 15.7991H17.9204C17.7264 15.7991 17.5534 15.9391 17.5174 16.1251C17.1464 17.8981 16.7634 19.6641 16.3964 21.4341C16.3644 21.5431 16.3484 21.6471 16.3244 21.7441H15.8734C14.9854 21.7441 14.3294 20.9261 14.5184 20.0601C15.3564 16.0681 16.2034 12.1031 17.0504 8.10809C17.1864 7.47109 17.7514 7.00009 18.4124 7.00009H19.4524V7.04009C19.4314 7.14509 19.3914 7.26609 19.3714 7.37509C18.9604 9.32509 18.5494 11.2561 18.1374 13.1991C18.0814 13.4571 18.2834 13.7151 18.5414 13.7151H20.4154C20.5724 13.7151 20.7254 13.6181 20.7904 13.4691C20.9834 13.0741 21.2424 12.6831 21.5894 12.3321C22.4744 11.3861 23.5074 10.9091 24.6674 10.9091C25.4664 10.9091 26.1144 11.1271 26.6344 11.5591C27.1594 12.0181 27.4614 12.5991 27.5254 13.3241C27.5464 13.5331 27.7224 13.7151 27.9404 13.7151H29.7664C29.9844 13.7151 30.1704 13.5211 30.1814 13.3001V13.1501C30.1814 11.7481 29.7104 10.5831 28.7794 9.67609C27.8554 8.77309 26.6674 8.31709 25.2364 8.31709C23.9984 8.31709 22.7644 8.70909 21.5234 9.47509C21.6764 8.78509 21.8304 8.07609 21.9794 7.37509C22.0004 7.26609 22.0274 7.14509 22.0554 7.04009L22.0714 7.00009Z" fill="#168A35"/>
</svg>
