<svg width="138" height="22" viewBox="0 0 138 22" fill="none" xmlns="http://www.w3.org/2000/svg">
<path d="M33.0517 13.2393C32.4194 13.4402 31.7622 13.5522 31.099 13.5721C29.612 13.5721 29.3042 12.2659 29.3042 11.1732C29.3042 9.47834 29.9178 8.62034 31.1317 8.62034C31.4736 8.61367 31.8143 8.66372 32.1398 8.76849L33.2094 9.19942L33.2305 7.79314L33.0863 7.73154C32.3334 7.41027 31.5268 7.23337 30.7085 7.21021C28.5308 7.21021 27.1245 8.77042 27.1245 11.1847C27.1245 13.4933 28.4807 15.0323 30.5065 15.0323C31.3856 15.0323 32.1956 14.8303 33.3922 14.3109L33.5845 14.2281L33.2729 13.1758L33.0517 13.2393Z" fill="#002C76"/>
<path d="M7.81562 9.33981C8.7775 8.94546 9.22383 8.2317 9.22383 7.08901C9.22383 5.97705 8.69666 5.12481 7.77712 4.75352C7.13266 4.48804 6.53051 4.42456 4.69908 4.42456H0.816895V5.53458L2.03657 5.71349V14.8803H5.11461C6.62863 14.8803 7.26542 14.7879 7.95024 14.4724C8.4495 14.253 8.87217 13.89 9.16443 13.4295C9.45669 12.9691 9.60526 12.4321 9.59123 11.8869C9.59123 10.5403 8.98527 9.71299 7.80792 9.33981H7.81562ZM4.21621 5.77312H4.81643C5.62057 5.77312 6.25157 5.77313 6.64017 6.10401C6.77852 6.23895 6.88619 6.40208 6.9559 6.58233C7.02562 6.76258 7.05573 6.9557 7.04418 7.14861C7.04418 8.1875 6.72674 8.59917 5.50514 8.72038L4.62597 8.81463L4.22198 9.48983L4.21621 5.77312ZM6.71712 13.1297C6.22848 13.4971 5.50322 13.5259 4.60096 13.5259H4.21621V10.0882L4.26815 10.0978H4.98187C5.7687 10.0978 6.3997 10.1228 6.80369 10.446C6.98038 10.6098 7.11871 10.8107 7.20884 11.0341C7.29897 11.2576 7.33864 11.4982 7.32502 11.7388C7.33822 12.0018 7.29017 12.2644 7.18464 12.5057C7.07917 12.7471 6.91912 12.9606 6.71712 13.1297Z" fill="#002C76"/>
<path d="M69.0766 9.33981C70.0384 8.94546 70.4866 8.2317 70.4866 7.08901C70.4866 5.97705 69.9593 5.12481 69.0401 4.75352C68.3972 4.48804 67.7913 4.42456 65.9618 4.42456H62.0796V5.53458L63.2992 5.71349V14.8803H66.3773C67.8894 14.8803 68.5281 14.7879 69.2127 14.4724C69.7118 14.253 70.1346 13.8898 70.4261 13.4293C70.7183 12.9689 70.8661 12.4319 70.8517 11.8869C70.8517 10.5403 70.246 9.71299 69.069 9.33981H69.0766ZM65.4712 5.77312H66.0733C66.8736 5.77312 67.5066 5.77313 67.8952 6.10401C68.0357 6.23839 68.1451 6.40185 68.2159 6.58295C68.2867 6.76405 68.3171 6.95838 68.3049 7.15246C68.3049 8.19135 67.9875 8.60302 66.7659 8.72423L65.8868 8.81848L65.4846 9.49375L65.4712 5.77312ZM67.9721 13.1297C67.4854 13.4971 66.7582 13.5259 65.856 13.5259H65.4712V10.0882L65.5212 10.0978H66.2368C67.0218 10.0978 67.6547 10.1228 68.0586 10.446C68.2359 10.6095 68.3748 10.8102 68.4652 11.0337C68.5557 11.2573 68.5956 11.498 68.582 11.7388C68.595 12.0022 68.5464 12.265 68.4403 12.5064C68.3341 12.7478 68.1731 12.9612 67.9702 13.1297" fill="#002C76"/>
<path d="M24.031 7.20825C23.3961 7.20825 22.5862 7.43334 21.6628 7.81806C21.6512 7.64688 21.6205 7.22558 21.6205 7.22558L18.4771 7.62378V8.72611H19.6313V14.8822H21.6955C21.6955 14.8822 21.7128 9.44366 21.7128 9.13201C22.227 8.95003 22.7663 8.84883 23.3115 8.83192C23.6424 8.83192 23.8655 8.89352 23.9964 9.02428C24.1887 9.21671 24.1887 9.62069 24.1887 10.0766V14.886H26.2703V9.96506C26.2703 8.82422 26.2202 8.45105 25.8605 7.9874C25.4642 7.47184 24.8486 7.21788 24.031 7.21788" fill="#002C76"/>
<path d="M37.642 7.21021C35.3334 7.21021 33.8848 8.71074 33.8848 11.127C33.8848 13.5433 35.2891 15.0285 37.642 15.0285C39.9504 15.0285 41.3875 13.5279 41.3875 11.1136C41.3875 8.69919 39.987 7.21021 37.642 7.21021ZM37.6304 13.6779C36.9571 13.6779 36.0663 13.4125 36.0663 11.127C36.0663 8.88007 36.8647 8.57806 37.642 8.57806C38.3133 8.57806 39.2079 8.83965 39.2079 11.1136C39.2079 13.3875 38.4095 13.6779 37.6304 13.6779Z" fill="#002C76"/>
<path d="M91.9251 7.21021C89.6164 7.21021 88.1699 8.71074 88.1699 11.127C88.1699 13.5433 89.5745 15.0285 91.9251 15.0285C94.2337 15.0285 95.6685 13.5279 95.6685 11.1136C95.6685 8.69919 94.2681 7.21021 91.9251 7.21021ZM91.9079 13.6779C91.2362 13.6779 90.3479 13.4125 90.3479 11.127C90.3479 8.88007 91.1441 8.57806 91.9251 8.57806C92.5967 8.57806 93.4891 8.83965 93.4891 11.1136C93.4891 13.3875 92.6909 13.6779 91.9079 13.6779Z" fill="#002C76"/>
<path d="M100.645 13.4412L99.1834 13.6624C98.8583 13.6624 98.7696 13.5778 98.718 13.497C98.6658 13.4162 98.6658 13.372 98.6658 12.789C98.6658 12.7256 98.6658 9.13386 98.6658 8.72604H100.732V7.44674H98.6678V5.45947L98.41 5.48063L96.5806 5.63453V12.7525C96.5806 13.5431 96.6459 14.0453 96.9841 14.4416C97.3231 14.8379 97.7851 15.0187 98.5083 15.0187C99.2811 14.9953 100.044 14.8276 100.755 14.5243L100.959 14.4435L100.645 13.4412Z" fill="#002C76"/>
<path d="M75.6252 7.21021C73.3166 7.21021 71.8701 8.71074 71.8701 11.127C71.8701 13.5433 73.274 15.0285 75.6252 15.0285C77.9339 15.0285 79.3666 13.5279 79.3666 11.1136C79.3666 8.69919 77.9703 7.21021 75.6252 7.21021ZM75.6094 13.6779C74.9405 13.6779 74.0474 13.4125 74.0474 11.127C74.0474 8.88007 74.8463 8.57806 75.6252 8.57806C76.2962 8.57806 77.1914 8.83965 77.1914 11.1136C77.1914 13.3875 76.3925 13.6779 75.6094 13.6779Z" fill="#002C76"/>
<path d="M85.2461 7.8123C84.7497 7.53895 84.1921 7.39664 83.6263 7.3987C81.5487 7.3987 80.0747 9.05125 80.0747 11.3694C80.0747 13.5894 81.2428 14.9842 83.1128 14.9842C83.5975 14.9842 84.0629 14.8553 85.1883 14.407V15.0053C85.1883 16.3 84.7188 16.6713 83.099 16.6713C82.2616 16.6616 81.427 16.561 80.6116 16.3712V17.6236C82.164 17.966 82.8068 18.0642 83.5975 18.0642C84.6033 18.0642 85.4675 17.8948 86.0786 17.5639C86.9868 17.0811 87.3237 16.3981 87.3237 15.09V7.49681H85.2461V7.8123ZM85.1883 13.374C84.8707 13.43 84.549 13.4596 84.2265 13.4625C82.9698 13.4625 82.2816 12.6507 82.2816 11.1539C82.2816 9.60338 83.0509 8.70688 84.417 8.70688C84.6748 8.70516 84.9326 8.72902 85.1863 8.77804L85.1883 13.374Z" fill="#002C76"/>
<path d="M17.4212 7.54681H15.3973V7.8566C14.9117 7.58744 14.3655 7.44643 13.8102 7.44678C11.7768 7.44678 10.332 9.09162 10.332 11.4021C10.332 13.6125 11.4748 15.0034 13.3081 15.0034C13.7814 15.0034 14.3951 14.7879 15.3377 14.2473V14.9341H15.3801L18.2657 14.6437V13.4086H17.4212V7.54681ZM15.3954 13.4336C15.0695 13.4908 14.7394 13.5204 14.4086 13.5221C13.1253 13.5221 12.4232 12.7007 12.4232 11.1905C12.4232 9.62258 13.2158 8.7146 14.6048 8.7146C14.8701 8.71302 15.135 8.73818 15.3954 8.7896V13.4336Z" fill="#002C76"/>
<path d="M108.337 7.54688H106.299V7.8566C105.815 7.58669 105.271 7.44562 104.716 7.44678C102.681 7.44678 101.238 9.09163 101.238 11.4021C101.238 13.6125 102.38 15.0034 104.212 15.0034C104.686 15.0034 105.299 14.788 106.243 14.2474V14.9341L109.185 14.6379V13.4028H108.344L108.337 7.54688ZM106.309 13.4336C105.983 13.4909 105.653 13.5205 105.322 13.5221C104.041 13.5221 103.337 12.7007 103.337 11.1905C103.337 9.62258 104.131 8.7146 105.518 8.7146C105.784 8.71316 106.049 8.73825 106.309 8.78961V13.4336Z" fill="#002C76"/>
<path d="M107.386 5.6692L106.892 4.08594L106.677 4.17635L103.431 5.49029L103.716 6.43486L107.386 5.6692Z" fill="#002C76"/>
<path d="M51.3547 3.93579L51.2508 3.9454L51.0045 3.97426L48.2593 4.32439V5.24973H49.2712V7.66214C48.4536 7.38708 47.3166 7.15044 46.2701 7.50436C44.8331 7.98726 44.0213 9.28389 43.9808 11.1596C43.9405 12.8583 44.8176 14.2569 46.2182 14.7167C47.2436 15.0533 48.6075 14.6743 49.3635 14.3126C49.3635 14.4588 49.3886 14.9225 49.3886 14.9225L52.1569 14.5569V13.6316H51.2797C51.2797 13.4393 51.3643 3.93579 51.3643 3.93579H51.3547ZM49.2828 13.3623C48.3478 13.6143 47.3109 13.8028 46.6415 12.9949C46.2567 12.5235 46.172 11.8232 46.172 11.1057C46.172 11.0249 46.172 10.9422 46.172 10.8594C46.1894 10.0707 46.399 9.56666 46.803 9.1127C47.4417 8.39124 48.5344 8.53554 49.3309 8.90872C49.3309 8.90872 49.2789 13.2123 49.2789 13.3623" fill="#002C76"/>
<path d="M56.3023 7.20621C55.8514 7.18621 55.4006 7.24678 54.971 7.3851C53.4435 7.88333 52.5798 9.22231 52.5356 11.1557C52.4932 12.9063 53.4263 14.3454 54.9133 14.8109C56.2273 15.2303 58.1511 14.7763 59.3708 14.1106L59.4381 14.076L59.0898 13.016L58.4069 13.2315C57.4181 13.5046 56.1484 14.001 55.3289 13.0641C54.8883 12.5504 54.8287 11.7828 54.8249 11.1672L58.8648 11.2461H59.4708V11.1595C59.4862 10.9826 59.4957 10.8056 59.4957 10.6363C59.4957 7.12536 56.4274 7.20429 56.2927 7.20044L56.3023 7.20621ZM54.8729 10.1284C54.8941 9.9976 54.9479 8.48359 56.2965 8.48359C57.6451 8.48359 57.6893 9.96295 57.7086 10.1284H54.8729Z" fill="#002C76"/>
<path d="M127.076 0.708023C127.083 0.708821 127.091 0.708037 127.098 0.70572C127.105 0.703396 127.112 0.699595 127.118 0.694562C127.123 0.689523 127.128 0.68337 127.131 0.676491C127.133 0.669613 127.135 0.662166 127.135 0.654636C127.135 0.647106 127.133 0.63966 127.131 0.632782C127.128 0.625904 127.123 0.619747 127.118 0.614712C127.112 0.609677 127.105 0.605876 127.098 0.603556C127.091 0.601237 127.083 0.60045 127.076 0.601247C119.897 -0.470167 114.686 4.63594 114.686 10.6705C114.686 16.0263 118.72 20.7759 124.579 20.7759C126.328 20.7759 128.221 20.347 129.646 19.2406C130.039 18.9191 130.218 18.7404 130.361 18.2047C130.361 18.2047 130.646 17.0977 130.396 16.0626C130.361 15.9196 130.325 15.9196 130.182 15.9907C128.968 16.4553 126.864 16.956 125.147 16.956C120.47 16.9548 117.508 13.1342 117.508 9.09956C117.508 4.95748 121.327 0.458875 127.076 0.708023Z" fill="#CD3232"/>
<path d="M134.038 5.06434C134.038 1.56536 128.111 0.350966 124.219 1.3512C124.111 1.38679 124.148 1.45797 124.219 1.45797C126.861 1.17262 130.111 2.85093 130.111 4.88577C130.111 6.34992 128.397 7.09976 127.396 7.49253C127.325 7.52814 127.361 7.59992 127.431 7.59992C129.324 7.27837 131.002 7.4189 132.359 7.56431C132.502 7.56431 132.573 7.49253 132.68 7.4213C133.397 6.92122 134.038 6.20694 134.038 5.06434Z" fill="#FFBE00"/>
<path d="M121.398 9.92075C127.861 9.92075 131.039 13.4559 131.039 17.0997C131.039 20.0992 128.29 21.5277 125.933 21.8487C125.919 21.8487 125.905 21.8543 125.895 21.8643C125.886 21.8744 125.879 21.8881 125.879 21.9024C125.879 21.9166 125.886 21.9302 125.895 21.9403C125.905 21.9503 125.919 21.9561 125.933 21.9561C131.363 21.9561 135.967 19.1707 135.967 15.2428C135.967 13.3123 134.824 11.9936 133.646 10.8154C133.503 10.6724 133.465 10.6724 133.361 10.7436C132.718 11.1725 132.004 12.0292 131.646 13.6719C131.646 13.7075 131.575 13.7075 131.575 13.6719C131.646 11.0652 133.289 9.38862 136.396 9.38862C136.467 9.38862 136.467 9.31747 136.396 9.28186C131.896 7.1746 126.076 7.42499 121.398 9.85317C121.327 9.88514 121.363 9.92075 121.398 9.92075Z" fill="#FFBE00"/>
</svg>
