<svg width="48" height="48" viewBox="0 0 48 48" fill="none" xmlns="http://www.w3.org/2000/svg">
<path fill-rule="evenodd" clip-rule="evenodd" d="M15.4014 40.354C15.1714 40.519 14.8334 40.531 14.4254 40.531H14.2364V38.948L14.2604 38.963H14.5904C14.9544 38.963 15.2444 38.963 15.4214 39.1C15.5904 39.253 15.6714 39.451 15.6714 39.713C15.6714 39.979 15.5744 40.212 15.4014 40.354ZM14.2364 36.952H14.4374H14.5184C14.8804 36.952 15.1754 36.952 15.3564 37.109C15.4694 37.198 15.5494 37.383 15.5494 37.577C15.5494 38.073 15.4014 38.254 14.8334 38.318L14.4254 38.346L14.2364 38.669V36.952ZM15.8934 38.604C16.3324 38.412 16.5494 38.084 16.5494 37.56C16.5494 37.037 16.3074 36.645 15.8804 36.485C15.5874 36.355 15.3004 36.335 14.4624 36.335H12.6644V36.843C12.6644 36.843 13.1114 36.904 13.2284 36.928V41.156H14.6554C15.3484 41.156 15.6474 41.116 15.9734 40.97C16.4414 40.745 16.7274 40.309 16.7274 39.786C16.7274 39.145 16.4414 38.77 15.8934 38.604Z" fill="#004880"/>
<path fill-rule="evenodd" clip-rule="evenodd" d="M26.4337 40.604C26.1147 40.604 25.7077 40.487 25.7077 39.418C25.7077 38.379 26.0867 38.254 26.4417 38.254C26.7467 38.254 27.1587 38.371 27.1587 39.411C27.1587 40.455 26.7877 40.604 26.4337 40.604ZM26.4417 37.617C25.3697 37.617 24.7077 38.302 24.7077 39.418C24.7077 40.551 25.3567 41.229 26.4417 41.229C27.5047 41.229 28.1587 40.531 28.1587 39.411C28.1587 38.293 27.5297 37.617 26.4417 37.617Z" fill="#004880"/>
<path fill-rule="evenodd" clip-rule="evenodd" d="M30.4473 40.5034L29.7833 40.5964C29.6343 40.5964 29.5973 40.5644 29.5613 40.5194C29.5523 40.4864 29.5523 40.4544 29.5523 40.1924V38.3174H30.5043V37.7134H29.5523V36.7944L29.4163 36.8224L28.5853 36.8834V40.1724C28.5853 40.5514 28.6183 40.7764 28.7713 40.9544C28.9163 41.1404 29.1503 41.2204 29.4803 41.2204C29.7833 41.2204 30.1253 41.1404 30.5113 40.9944L30.6093 40.9544L30.4473 40.5034Z" fill="#004880"/>
<path fill-rule="evenodd" clip-rule="evenodd" d="M18.9083 40.604C18.6013 40.604 18.1943 40.487 18.1943 39.418C18.1943 38.379 18.5573 38.254 18.9163 38.254C19.2263 38.254 19.6413 38.371 19.6413 39.411C19.6413 40.455 19.2823 40.604 18.9083 40.604ZM18.9163 37.617C17.8553 37.617 17.1863 38.302 17.1863 39.418C17.1863 40.551 17.8403 41.229 18.9163 41.229C19.9843 41.229 20.6493 40.531 20.6493 39.411C20.6493 38.293 19.9883 37.617 18.9163 37.617Z" fill="#004880"/>
<path fill-rule="evenodd" clip-rule="evenodd" d="M23.338 40.4545C23.152 40.4865 23.039 40.5115 22.886 40.5115C22.306 40.5115 21.991 40.1285 21.991 39.4385C21.991 38.7215 22.338 38.3025 22.967 38.3025C23.096 38.3025 23.185 38.3175 23.338 38.3345V40.4545ZM23.358 37.8915C23.136 37.7695 22.87 37.7055 22.609 37.7055C21.653 37.7055 20.972 38.4555 20.972 39.5355C20.972 40.5635 21.508 41.1965 22.378 41.1965C22.609 41.1965 22.814 41.1405 23.338 40.9375V41.2125C23.338 41.8125 23.108 41.9865 22.37 41.9865C22.024 41.9865 21.572 41.9305 21.214 41.8525V42.4215C21.94 42.5705 22.225 42.6235 22.609 42.6235C23.064 42.6235 23.459 42.5465 23.733 42.3895C24.16 42.1805 24.314 41.8525 24.314 41.2445V37.7545H23.358V37.8915Z" fill="#004880"/>
<path fill-rule="evenodd" clip-rule="evenodd" d="M33.0636 40.4868C32.8906 40.5188 32.7776 40.5308 32.6166 40.5308C32.0246 40.5308 31.7096 40.1518 31.7096 39.4508C31.7096 38.7458 32.0686 38.3018 32.7056 38.3018C32.8266 38.3018 32.9156 38.3178 33.0636 38.3458V40.4868ZM34.0026 37.7698H33.0636V37.9158C32.8586 37.7778 32.5926 37.7138 32.3416 37.7138C31.3996 37.7138 30.7386 38.4798 30.7386 39.5478C30.7386 40.5638 31.2576 41.2128 32.1086 41.2128C32.3346 41.2128 32.6046 41.1158 33.0476 40.8618V41.1798L34.3896 41.0508V40.4708H34.0026V37.7698Z" fill="#004880"/>
<path fill-rule="evenodd" clip-rule="evenodd" d="M33.5714 36.9038L33.3424 36.1708L33.2374 36.2108L31.7374 36.8228L31.8674 37.2618L33.5714 36.9038Z" fill="#004880"/>
<path fill-rule="evenodd" clip-rule="evenodd" d="M24.8692 33.6186C24.5182 33.7196 24.2122 33.7716 23.9742 33.7716C23.2812 33.7716 23.1362 33.1676 23.1362 32.6586C23.1362 31.9006 23.4232 31.4776 23.9912 31.4776C24.2652 31.4776 24.4462 31.5466 24.4462 31.5466L24.9412 31.7606L24.9502 31.0876L24.8862 31.0706C24.7082 31.0026 24.2612 30.8126 23.7892 30.8126C22.7902 30.8126 22.1362 31.5466 22.1362 32.6676C22.1362 33.7306 22.7652 34.4526 23.6922 34.4526C24.0872 34.4526 24.4742 34.3516 25.0302 34.1186L25.1192 34.0786L24.9772 33.5866L24.8692 33.6186Z" fill="#004880"/>
<path fill-rule="evenodd" clip-rule="evenodd" d="M12.7208 33.5698C12.4948 33.7308 12.1638 33.7308 11.7378 33.7308H11.5838V32.1598L11.5878 32.1678H11.9228C12.2848 32.1678 12.5748 32.1788 12.7608 32.3288C12.9218 32.4658 12.9988 32.6678 12.9988 32.9218C12.9988 33.1868 12.8988 33.4408 12.7208 33.5698ZM11.5838 30.1688H11.7778H11.8508C12.2208 30.1688 12.5028 30.1688 12.6728 30.3218C12.8098 30.4228 12.8778 30.5948 12.8778 30.8048C12.8778 31.2938 12.7208 31.4778 12.1638 31.5268L11.7528 31.5788L11.5838 31.9008V30.1688ZM13.2288 31.8048C13.6678 31.6348 13.8818 31.3048 13.8818 30.7728C13.8818 30.2648 13.6398 29.8698 13.2038 29.6928C12.9068 29.5758 12.6238 29.5558 11.7828 29.5558H9.99979V30.0628C9.99979 30.0628 10.4318 30.1198 10.5648 30.1438V34.3768H11.9878C12.6728 34.3768 12.9708 34.3368 13.2848 34.1868C13.7728 33.9618 14.0508 33.5258 14.0508 32.9898C14.0508 32.3688 13.7648 31.9818 13.2288 31.8048Z" fill="#004880"/>
<path fill-rule="evenodd" clip-rule="evenodd" d="M20.7091 30.8129C20.4111 30.8129 20.0491 30.9259 19.6131 31.1119C19.6051 31.0349 19.5891 30.8449 19.5891 30.8449L18.1541 31.0189V31.5269H18.6701V34.3759H19.6291C19.6291 34.3759 19.6421 31.8619 19.6421 31.7239C19.7671 31.6709 20.0851 31.5789 20.3791 31.5789C20.5241 31.5789 20.6381 31.6199 20.6861 31.6519C20.7821 31.7599 20.7821 31.9379 20.7821 32.1519V34.3759H21.7411V32.1029C21.7411 31.5789 21.7181 31.3969 21.5441 31.1919C21.3711 30.9509 21.0881 30.8129 20.7091 30.8129Z" fill="#004880"/>
<path fill-rule="evenodd" clip-rule="evenodd" d="M26.9815 33.8198C26.6675 33.8198 26.2555 33.6948 26.2555 32.6348C26.2555 31.5948 26.6275 31.4628 26.9815 31.4628C27.2925 31.4628 27.7075 31.5868 27.7075 32.6348C27.7075 33.6748 27.3395 33.8198 26.9815 33.8198ZM26.9815 30.8128C25.9175 30.8128 25.2485 31.5268 25.2485 32.6348C25.2485 33.7628 25.9015 34.4528 26.9815 34.4528C28.0535 34.4528 28.7025 33.7308 28.7025 32.6348C28.7025 31.5028 28.0695 30.8128 26.9815 30.8128Z" fill="#004880"/>
<path fill-rule="evenodd" clip-rule="evenodd" d="M16.7315 33.7114C16.5495 33.7314 16.4245 33.7314 16.2675 33.7314C15.6705 33.7314 15.3485 33.3604 15.3485 32.6674C15.3485 31.9384 15.7195 31.5264 16.3605 31.5264C16.4775 31.5264 16.5665 31.5264 16.7315 31.5544V33.7114ZM17.6625 30.9864H16.7315V31.1354C16.5025 31.0024 16.2525 30.9414 15.9945 30.9414C15.0505 30.9414 14.3805 31.7034 14.3805 32.7644C14.3805 33.7954 14.9215 34.4204 15.7595 34.4204C15.9735 34.4204 16.2595 34.3364 16.6955 34.0784V34.3924H16.7105L18.0495 34.2634V33.6944H17.6625V30.9864Z" fill="#004880"/>
<path fill-rule="evenodd" clip-rule="evenodd" d="M32.3507 33.6752C31.9117 33.7952 31.4397 33.8842 31.1247 33.5052C30.9517 33.2882 30.9077 32.9692 30.9077 32.6352C30.9077 32.5952 30.9237 32.5542 30.9237 32.5222C30.9237 32.1592 31.0247 31.9332 31.2017 31.7242C31.5037 31.3942 32.0037 31.4382 32.3737 31.6192C32.3737 31.6192 32.3507 33.6022 32.3507 33.6752ZM33.3017 29.3212H33.2527L33.1487 29.3422L31.8747 29.5032V29.9352H32.3507V31.0382C31.9757 30.9172 31.4477 30.8052 30.9637 30.9702C30.2987 31.1922 29.9277 31.7882 29.9087 32.6582C29.8747 33.4412 30.2987 34.0782 30.9397 34.3042C31.4227 34.4522 32.0367 34.2712 32.3907 34.1182C32.3907 34.1872 32.4067 34.3922 32.4067 34.3922L33.6807 34.2192V33.7952H33.2617C33.2617 33.7112 33.3017 29.3212 33.3017 29.3212Z" fill="#004880"/>
<path fill-rule="evenodd" clip-rule="evenodd" d="M34.9298 32.1792C34.9468 32.1192 34.9698 31.4262 35.5998 31.4262C36.2278 31.4262 36.2278 32.1112 36.2518 32.1792H34.9298ZM35.5828 30.8132C35.3728 30.8132 35.1798 30.8452 34.9788 30.9172C34.2688 31.1432 33.8738 31.7602 33.8578 32.6582C33.8328 33.4532 34.2688 34.1302 34.9538 34.3362C35.5508 34.5452 36.4378 34.3362 37.0018 34.0262L37.0418 34.0052L36.8728 33.5262L36.5588 33.6112C36.1068 33.7312 35.5188 33.9732 35.1398 33.5372C34.9428 33.3042 34.9218 32.9332 34.9058 32.6582L36.7768 32.7112H37.0498V32.6582C37.0708 32.5712 37.0708 32.4862 37.0708 32.4252C37.0708 30.7962 35.6558 30.8132 35.5828 30.8132Z" fill="#004880"/>
<path fill-rule="evenodd" clip-rule="evenodd" d="M28.545 19.7534C27.264 20.6394 25.462 21.1844 23.745 21.1354C19.432 20.9704 16.074 17.4754 16.232 13.3394C16.381 9.4904 20.363 6.1654 23.524 6.0564C23.684 6.0284 23.733 6.0004 23.571 6.0004C18.166 6.0564 13.717 9.8414 13.507 15.0004C13.321 20.1444 17.332 24.4684 22.491 24.6944C27.203 24.8794 29.71 22.0704 28.545 19.7534Z" fill="#004880"/>
<path fill-rule="evenodd" clip-rule="evenodd" d="M31.0889 14.2954C28.3599 15.4604 28.4969 18.4354 28.9009 20.8094C28.8879 20.6954 28.8879 20.6074 28.8679 20.4944C28.9729 21.2684 28.9159 22.0024 28.5129 22.7834C27.7269 24.1264 26.4619 25.1384 23.9909 25.7944C30.2989 26.0854 37.4209 20.0114 31.0889 14.2954Z" fill="#004880"/>
<path fill-rule="evenodd" clip-rule="evenodd" d="M23.9747 6.0004C23.8707 6.0004 23.8377 6.0284 23.9827 6.0404C27.9007 6.4764 30.6937 9.0264 25.1347 11.8004C26.7397 11.5704 28.3837 11.7604 30.1657 12.3684C33.0037 8.7404 28.4487 6.0284 23.9747 6.0004Z" fill="#004880"/>
<path fill-rule="evenodd" clip-rule="evenodd" d="M28.8761 20.5668C28.5371 17.6448 27.9331 13.6498 33.3021 13.3518C26.8771 10.2688 22.6451 13.3078 19.4691 13.9238C22.2901 14.2748 28.1901 17.3988 28.8761 20.5668Z" fill="#004880"/>
</svg>
